<svg width="50" height="50" viewBox="0 0 50 50" fill="none" xmlns="http://www.w3.org/2000/svg">
<rect width="50" height="50" rx="25" fill="#F1B9F5"/>
<path d="M30.9812 15.428L18.939 11.2093C18.8329 11.1733 18.7198 11.1631 18.609 11.1794C18.4982 11.1957 18.3928 11.2381 18.3015 11.303C18.2098 11.3674 18.135 11.4531 18.0835 11.5526C18.0321 11.6522 18.0056 11.7628 18.0062 11.8749V20.1624C18.0062 20.3489 18.0803 20.5278 18.2122 20.6596C18.344 20.7915 18.5229 20.8655 18.7094 20.8655V38.4437H30.5594V25.6749C30.6206 25.6915 30.6835 25.7009 30.7469 25.703C30.9333 25.703 31.1122 25.629 31.244 25.4971C31.3759 25.3653 31.45 25.1864 31.45 24.9999V16.0937C31.4505 15.9478 31.4057 15.8054 31.3217 15.6861C31.2377 15.5668 31.1188 15.4766 30.9812 15.428Z" fill="#0099D6"/>
<path d="M23.0032 19.4592H14.4203C14.032 19.4592 13.7172 19.774 13.7172 20.1624V38.1249C13.7172 38.5132 14.032 38.828 14.4203 38.828H23.0032C23.3915 38.828 23.7063 38.5132 23.7063 38.1249V20.1624C23.7063 19.774 23.3915 19.4592 23.0032 19.4592Z" fill="#97CCEF"/>
<path d="M30.7469 38.8281H23.0031C22.8166 38.8281 22.6378 38.7541 22.5059 38.6222C22.3741 38.4903 22.3 38.3115 22.3 38.125C22.3 37.9385 22.3741 37.7597 22.5059 37.6278C22.6378 37.4959 22.8166 37.4219 23.0031 37.4219H30.7469C30.9333 37.4219 31.1122 37.4959 31.2441 37.6278C31.3759 37.7597 31.45 37.9385 31.45 38.125C31.45 38.3115 31.3759 38.4903 31.2441 38.6222C31.1122 38.7541 30.9333 38.8281 30.7469 38.8281Z" fill="black"/>
<path d="M35.5797 24.2969H27.3765C26.9882 24.2969 26.6734 24.6117 26.6734 25V38.125C26.6734 38.5133 26.9882 38.8281 27.3765 38.8281H35.5797C35.968 38.8281 36.2828 38.5133 36.2828 38.125V25C36.2828 24.6117 35.968 24.2969 35.5797 24.2969Z" fill="#97CCEF"/>
<path d="M38.125 38.8281H11.875C11.6885 38.8281 11.5097 38.7541 11.3778 38.6222C11.246 38.4903 11.1719 38.3115 11.1719 38.125C11.1719 37.9385 11.246 37.7597 11.3778 37.6278C11.5097 37.4959 11.6885 37.4219 11.875 37.4219H38.125C38.3115 37.4219 38.4903 37.4959 38.6222 37.6278C38.7541 37.7597 38.8281 37.9385 38.8281 38.125C38.8281 38.3115 38.7541 38.4903 38.6222 38.6222C38.4903 38.7541 38.3115 38.8281 38.125 38.8281Z" fill="#275996"/>
</svg>
