<svg width="50" height="50" viewBox="0 0 50 50" fill="none" xmlns="http://www.w3.org/2000/svg">
<rect width="50" height="50" rx="25" fill="#DC7A73"/>
<g clip-path="url(#clip0_3_547)">
<path d="M26.7578 27.1703C27.5345 27.1703 28.1641 26.5407 28.1641 25.7641C28.1641 24.9874 27.5345 24.3578 26.7578 24.3578C25.9812 24.3578 25.3516 24.9874 25.3516 25.7641C25.3516 26.5407 25.9812 27.1703 26.7578 27.1703Z" fill="#FFD578" stroke="#54596E" stroke-width="2" stroke-linecap="round" stroke-linejoin="round"/>
<path d="M26.0687 33.9062H14.4344C12.7609 33.9062 11.4062 35.1156 11.4062 36.6062V38.5938H28.75V36.2969C28.75 34.975 27.55 33.9062 26.0687 33.9062Z" fill="#8065C4" stroke="#8065C4" stroke-width="2" stroke-miterlimit="10"/>
<path d="M13.75 26.875C14.5267 26.875 15.1562 26.2454 15.1562 25.4688C15.1562 24.6921 14.5267 24.0625 13.75 24.0625C12.9733 24.0625 12.3438 24.6921 12.3438 25.4688C12.3438 26.2454 12.9733 26.875 13.75 26.875Z" fill="#EACA80"/>
<path d="M26.4062 25.6469L26.7578 21.5406C26.7646 20.8933 26.6437 20.2509 26.4021 19.6503C26.1605 19.0496 25.8029 18.5025 25.3497 18.0402C24.8965 17.5779 24.3567 17.2094 23.761 16.9558C23.1653 16.7023 22.5255 16.5686 21.8781 16.5625H18.2781C17.6311 16.5686 16.9917 16.7021 16.3963 16.9554C15.8009 17.2087 15.2613 17.5767 14.8082 18.0385C14.355 18.5004 13.9973 19.0469 13.7554 19.647C13.5135 20.2471 13.3922 20.889 13.3984 21.5359L13.75 25.6469" fill="#4F4F4F"/>
<path d="M26.4062 25.6469L26.7578 21.5406C26.7646 20.8933 26.6437 20.2509 26.4021 19.6503C26.1605 19.0496 25.8029 18.5025 25.3497 18.0402C24.8965 17.5779 24.3567 17.2094 23.761 16.9558C23.1653 16.7023 22.5255 16.5686 21.8781 16.5625H18.2781C17.6311 16.5686 16.9917 16.7021 16.3963 16.9554C15.8009 17.2087 15.2613 17.5767 14.8082 18.0385C14.355 18.5004 13.9973 19.0469 13.7554 19.647C13.5135 20.2471 13.3922 20.889 13.3984 21.5359L13.75 25.6469" stroke="#4F4F4F" stroke-width="2" stroke-linecap="round" stroke-linejoin="round"/>
<path d="M17.9688 32.0922H22.1875V34.0281C22.1863 34.4935 22.0005 34.9394 21.671 35.2681C21.3415 35.5967 20.8951 35.7812 20.4297 35.7812H19.7266C19.2604 35.7812 18.8133 35.5961 18.4836 35.2664C18.1539 34.9367 17.9688 34.4896 17.9688 34.0234V32.0922Z" fill="#EACA80" stroke="#EACA80" stroke-width="2" stroke-linecap="round" stroke-linejoin="round"/>
<path d="M26.4062 29.2188C26.4062 30.089 26.752 30.9236 27.3673 31.5389C27.9827 32.1543 28.8173 32.5 29.6875 32.5H32.0312C32.9015 32.5 33.7361 32.8457 34.3514 33.4611C34.9668 34.0764 35.3125 34.911 35.3125 35.7812V39.5312" stroke="#CFD8DC" stroke-width="2" stroke-linecap="square" stroke-linejoin="round"/>
<path d="M32.5 26.875V39.5312" stroke="#CFD8DC" stroke-width="2" stroke-linecap="square" stroke-linejoin="round"/>
<path d="M17.7484 22.4594C14.2516 22.4594 13.75 19.375 13.75 22.8062V25.6844C13.8372 27.5264 14.518 29.2908 15.6906 30.7141C16.6281 31.8344 18.2969 32.5 20.0781 32.5C21.8594 32.5 23.5375 31.8391 24.4656 30.7141C25.6383 29.2908 26.319 27.5264 26.4062 25.6844V22.8062C26.4062 19.375 21.25 22.4594 17.7484 22.4594Z" fill="#FFE082"/>
<path d="M25.9375 37.1875V39.0625" stroke="#54596E" stroke-width="2" stroke-miterlimit="10"/>
<path d="M14.2188 37.2484V39.0625" stroke="#54596E" stroke-width="2" stroke-miterlimit="10"/>
<path d="M32.5 26.875C36.1244 26.875 39.0625 23.2023 39.0625 18.6719C39.0625 14.1414 36.1244 10.4688 32.5 10.4688C28.8756 10.4688 25.9375 14.1414 25.9375 18.6719C25.9375 23.2023 28.8756 26.875 32.5 26.875Z" fill="#6989FF" stroke="#6989FF" stroke-width="2" stroke-linecap="round" stroke-linejoin="round"/>
<path opacity="0.1" d="M32.5 24.0625C29.2609 24.0625 26.575 21.1234 26.0406 17.2656C25.9739 17.7314 25.9395 18.2013 25.9375 18.6719C25.9375 23.2047 28.8766 26.875 32.5 26.875C36.1234 26.875 39.0625 23.2047 39.0625 18.6719C39.0605 18.2013 39.0261 17.7314 38.9594 17.2656C38.425 21.1234 35.7391 24.0625 32.5 24.0625Z" fill="#5B3B63" stroke="#5B3B63" stroke-width="2" stroke-linecap="round" stroke-linejoin="round"/>
<path d="M26.4062 29.2188C30.0306 29.2188 32.9688 25.5461 32.9688 21.0156C32.9688 16.4852 30.0306 12.8125 26.4062 12.8125C22.7819 12.8125 19.8438 16.4852 19.8438 21.0156C19.8438 25.5461 22.7819 29.2188 26.4062 29.2188Z" fill="#F57E17" stroke="#F57E17" stroke-width="2" stroke-linecap="round" stroke-linejoin="round"/>
<path opacity="0.1" d="M26.4062 26.4062C23.1672 26.4062 20.4812 23.4672 19.9469 19.6094C19.8802 20.0752 19.8457 20.5451 19.8438 21.0156C19.8438 25.5484 22.7828 29.2188 26.4062 29.2188C30.0297 29.2188 32.9688 25.5484 32.9688 21.0156C32.9668 20.5451 32.9323 20.0752 32.8656 19.6094C32.3312 23.4672 29.6453 26.4062 26.4062 26.4062Z" fill="#5B3B63" stroke="#5B3B63" stroke-width="2" stroke-linecap="round" stroke-linejoin="round"/>
<path d="M23.5938 15.625C22.7295 16.3655 22.0816 17.326 21.7188 18.4047L23.5938 15.625Z" fill="#F4A14E"/>
<path d="M23.5938 15.625C22.7295 16.3655 22.0816 17.326 21.7188 18.4047" stroke="#FFF35F" stroke-width="2" stroke-linecap="round" stroke-linejoin="round"/>
</g>
<defs>
<clipPath id="clip0_3_547">
<rect width="30" height="30" fill="white" transform="translate(10 10)"/>
</clipPath>
</defs>
</svg>
