<svg width="50" height="50" viewBox="0 0 50 50" fill="none" xmlns="http://www.w3.org/2000/svg">
<rect width="50" height="50" rx="25" fill="#5BBBB5"/>
<g clip-path="url(#clip0_5_260)">
<path d="M27.3438 17.3828V19.9744C26.5879 19.8127 25.8039 19.7266 25 19.7266C24.598 19.7266 24.2008 19.7482 23.81 19.7898C23.4191 19.8314 23.0342 19.8936 22.6562 19.9744V17.3828C22.6562 16.7359 22.9188 16.15 23.343 15.7258C23.7672 15.3016 24.3531 15.0391 25 15.0391C26.2943 15.0391 27.3438 16.0885 27.3438 17.3828Z" fill="#808080"/>
<path d="M36.7188 34.9609C37.6896 34.9609 38.4766 35.7479 38.4766 36.7188C38.4766 37.2039 38.2797 37.6434 37.9615 37.9615C37.6434 38.2797 37.2039 38.4766 36.7188 38.4766H13.2812C12.3104 38.4766 11.5234 37.6896 11.5234 36.7188C11.5234 36.2336 11.7203 35.7941 12.0385 35.476C12.3566 35.1578 12.7961 34.9609 13.2812 34.9609H13.8672H36.1328H36.7188Z" fill="#808080"/>
<path d="M36.1328 30.8594V34.9609H13.8672V30.8594C13.8672 25.515 17.6336 21.0508 22.6562 19.9744C23.0342 19.8936 23.4191 19.8314 23.81 19.7898C24.2008 19.7482 24.598 19.7266 25 19.7266C25.8039 19.7266 26.5879 19.8127 27.3438 19.9744C32.3664 21.0508 36.1328 25.515 36.1328 30.8594Z" fill="#B3B3B3"/>
<path d="M36.7188 39.0625H13.2812C11.9889 39.0625 10.9375 38.0111 10.9375 36.7188C10.9375 36.0929 11.1814 35.5044 11.6242 35.0617C12.067 34.6189 12.6555 34.375 13.2812 34.375H13.8672C14.1908 34.375 14.4531 34.6374 14.4531 34.9609C14.4531 35.2845 14.1908 35.5469 13.8672 35.5469H13.2812C12.9685 35.5469 12.6743 35.6689 12.4528 35.8903C12.2314 36.1118 12.1094 36.406 12.1094 36.7188C12.1094 37.3649 12.6351 37.8906 13.2812 37.8906H36.7188C37.0315 37.8906 37.3257 37.7687 37.5472 37.5472C37.7687 37.3258 37.8906 37.0315 37.8906 36.7188C37.8906 36.0726 37.3649 35.5469 36.7188 35.5469H36.1328C35.8093 35.5469 35.5469 35.2845 35.5469 34.9609C35.5469 34.6374 35.8093 34.375 36.1328 34.375H36.7188C38.0111 34.375 39.0625 35.4264 39.0625 36.7188C39.0625 37.3445 38.8186 37.933 38.3758 38.3758C37.933 38.8186 37.3445 39.0625 36.7188 39.0625Z" fill="black"/>
<path d="M27.3438 20.5604C27.0202 20.5604 26.7578 20.298 26.7578 19.9744V17.3828C26.7578 16.4136 25.9693 15.625 25 15.625C24.5308 15.625 24.0895 15.8079 23.7573 16.1401C23.4251 16.4723 23.2422 16.9136 23.2422 17.3828V19.9744C23.2422 20.298 22.9799 20.5604 22.6562 20.5604C22.3326 20.5604 22.0703 20.298 22.0703 19.9744V17.3828C22.0703 16.6006 22.3752 15.8649 22.9287 15.3115C23.4821 14.758 24.2178 14.4531 25 14.4531C26.6154 14.4531 27.9297 15.7674 27.9297 17.3828V19.9744C27.9297 20.298 27.6673 20.5604 27.3438 20.5604Z" fill="black"/>
<path d="M36.1328 35.5469H13.8672C13.5436 35.5469 13.2812 35.2845 13.2812 34.9609V30.8594C13.2812 28.1624 14.22 25.5294 15.9247 23.4454C17.6054 21.3908 19.9524 19.9546 22.5335 19.4015C22.9349 19.3156 23.3434 19.2503 23.748 19.2072C24.163 19.163 24.5842 19.1406 25 19.1406C25.8276 19.1406 26.6573 19.2284 27.4663 19.4014C30.0476 19.9546 32.3946 21.3908 34.0753 23.4454C35.78 25.5294 36.7188 28.1624 36.7188 30.8594V34.9609C36.7188 35.2845 36.4564 35.5469 36.1328 35.5469ZM14.4531 34.375H35.5469V30.8594C35.5469 25.918 32.0453 21.5812 27.2209 20.5473C26.4926 20.3915 25.7453 20.3125 25 20.3125C24.6255 20.3125 24.246 20.3327 23.872 20.3725C23.508 20.4112 23.1402 20.4701 22.7788 20.5474C17.9547 21.5812 14.4531 25.918 14.4531 30.8594V34.375Z" fill="black"/>
<path d="M17.0441 31.1975C16.7205 31.1975 16.4582 30.9351 16.4582 30.6115C16.4582 28.9978 17.1224 27.2127 18.2806 25.7138C19.511 24.1214 21.1416 23.0402 22.8721 22.6693C23.1886 22.6016 23.5 22.803 23.5678 23.1194C23.6357 23.4358 23.4341 23.7473 23.1177 23.8152C19.8838 24.5083 17.6301 27.9533 17.6301 30.6116C17.6301 30.9351 17.3677 31.1975 17.0441 31.1975Z" fill="black"/>
<path d="M38.4766 12.1094H31.4453C31.1218 12.1094 30.8594 11.8471 30.8594 11.5234C30.8594 11.1998 31.1218 10.9375 31.4453 10.9375H38.4766C38.8001 10.9375 39.0625 11.1998 39.0625 11.5234C39.0625 11.8471 38.8001 12.1094 38.4766 12.1094Z" fill="black"/>
<path d="M38.4766 15.0391H32.6172C32.2936 15.0391 32.0312 14.7767 32.0312 14.4531C32.0312 14.1295 32.2936 13.8672 32.6172 13.8672H38.4766C38.8001 13.8672 39.0625 14.1295 39.0625 14.4531C39.0625 14.7767 38.8001 15.0391 38.4766 15.0391Z" fill="black"/>
<path d="M38.4766 17.9688H34.375C34.0514 17.9688 33.7891 17.7064 33.7891 17.3828C33.7891 17.0592 34.0514 16.7969 34.375 16.7969H38.4766C38.8001 16.7969 39.0625 17.0592 39.0625 17.3828C39.0625 17.7064 38.8001 17.9688 38.4766 17.9688Z" fill="black"/>
</g>
<defs>
<clipPath id="clip0_5_260">
<rect width="30" height="30" fill="white" transform="translate(10 10)"/>
</clipPath>
</defs>
</svg>
