<svg width="50" height="50" viewBox="0 0 50 50" fill="none" xmlns="http://www.w3.org/2000/svg">
<rect width="50" height="50" rx="25" fill="#FFBC58"/>
<path d="M29.0279 35.6021L28.1747 22.237H12.4504L11.5973 35.6021C11.5728 35.9857 11.6272 36.3704 11.7572 36.7322C11.8872 37.0939 12.0899 37.4253 12.353 37.7056C12.616 37.986 12.9337 38.2094 13.2865 38.3622C13.6393 38.5149 14.0196 38.5938 14.4041 38.5938H26.2211C26.6055 38.5938 26.9858 38.5149 27.3386 38.3622C27.6914 38.2094 28.0091 37.986 28.2722 37.7056C28.5352 37.4253 28.738 37.0939 28.868 36.7322C28.9979 36.3704 29.0524 35.9857 29.0279 35.6021Z" fill="#4484D1"/>
<path d="M25.1738 16.5625H15.4512C14.7363 16.5625 14.0482 16.8347 13.5269 17.3239C13.0055 17.8131 12.69 18.4824 12.6444 19.1958L12.4051 22.9458C12.3806 23.3295 12.435 23.7141 12.565 24.0759C12.695 24.4377 12.8977 24.769 13.1607 25.0493C13.4238 25.3297 13.7415 25.5532 14.0943 25.7059C14.4471 25.8587 14.8274 25.9375 15.2119 25.9375H25.4132C25.7976 25.9375 26.178 25.8587 26.5307 25.7059C26.8835 25.5532 27.2012 25.3297 27.4643 25.0493C27.7273 24.769 27.9301 24.4377 28.06 24.0759C28.1901 23.7141 28.2444 23.3295 28.2199 22.9458L27.9806 19.1958C27.9351 18.4824 27.6195 17.8131 27.0982 17.3239C26.5768 16.8347 25.8887 16.5625 25.1738 16.5625Z" fill="#77A6DE"/>
<path d="M22.1875 22.6562H18.4375V23.5938H22.1875V22.6562Z" fill="#DB9CB3"/>
<path d="M36.4138 21.0583L30.2332 14.0077C27.8974 11.9957 25.9036 10.9697 25.2243 11.5828C24.2634 12.4501 26.2967 16.269 29.7658 20.1126C33.235 23.9562 36.8263 26.369 37.7871 25.5017C38.3946 24.9535 37.8055 23.226 36.4138 21.0583Z" fill="#F9CD75"/>
<path d="M38.3523 17.0328L34.3349 12.5817C34.1919 12.4234 33.9993 12.3185 33.7888 12.2844C33.5782 12.2503 33.3623 12.289 33.1767 12.3942L30.0711 14.1541C30.506 15.7221 31.3001 17.1674 32.3904 18.3753C33.4806 19.5832 34.8372 20.5207 36.3525 21.1136L38.4205 18.204C38.5441 18.0302 38.6046 17.8193 38.5922 17.6064C38.5799 17.3934 38.4952 17.1911 38.3523 17.0328Z" fill="#FFD997"/>
<path d="M24.9973 38.5938L22.4398 14.7241C22.3836 14.1991 22.1352 13.7135 21.7425 13.3606C21.3498 13.0077 20.8405 12.8125 20.3125 12.8125C19.7845 12.8125 19.2751 13.0077 18.8824 13.3606C18.4897 13.7135 18.2413 14.1991 18.1851 14.7241L15.6276 38.5938H14.6632L17.2529 14.6242C17.3338 13.8692 17.691 13.1708 18.2558 12.6633C18.8206 12.1558 19.5532 11.875 20.3125 11.875C21.0718 11.875 21.8043 12.1558 22.3691 12.6633C22.9339 13.1708 23.2911 13.8692 23.3719 14.6242L25.9412 38.5938H24.9973Z" fill="#5791D6"/>
<path d="M23.125 32.0312H17.5V36.7188H23.125V32.0312Z" fill="#DB9CB3"/>
<path d="M38.1483 27.4427C35.672 27.993 33.0975 27.9162 30.6583 27.2193L29.3462 26.8444C26.2249 25.9526 22.8958 26.1229 19.8817 27.3285L19.8438 27.3438V38.125L19.8817 38.1098C22.8958 36.9041 26.2249 36.7339 29.3462 37.6257L30.6583 38.0006C33.0975 38.6975 35.672 38.7742 38.1483 38.224L38.5938 38.125V27.3438L38.1483 27.4427Z" fill="#7FDDBB"/>
<path d="M38.5938 27.3438L38.1485 27.4427C36.1372 27.8897 34.0562 27.9239 32.0313 27.5436V33.9062H33.1826C33.6232 33.9062 34.0457 34.0813 34.3573 34.3928C34.6688 34.7044 34.8438 35.1269 34.8438 35.5675C34.8438 35.9057 34.7406 36.2358 34.548 36.5137C34.3554 36.7917 34.0825 37.0042 33.7659 37.123C32.3589 37.6504 30.8437 37.8238 29.3539 37.6279L30.6584 38.0006C33.0976 38.6975 35.6721 38.7743 38.1485 38.224L38.5938 38.125V27.3438Z" fill="#31C292"/>
<path d="M33.4375 24.5312H32.0312V33.9062H33.1825C33.6231 33.9062 34.0456 34.0813 34.3572 34.3928C34.6687 34.7044 34.8438 35.1269 34.8438 35.5675V25.9375C34.8438 25.5646 34.6956 25.2068 34.4319 24.9431C34.1682 24.6794 33.8104 24.5312 33.4375 24.5312Z" fill="#00B378"/>
<path d="M23.125 35.7812C23.0007 35.7812 22.8815 35.7319 22.7935 35.644C22.7056 35.5561 22.6563 35.4368 22.6563 35.3125C22.656 35.0639 22.5571 34.8256 22.3813 34.6499C22.2056 34.4741 21.9673 34.3753 21.7188 34.375C21.6572 34.375 21.5962 34.3629 21.5393 34.3393C21.4825 34.3158 21.4308 34.2813 21.3873 34.2377C21.3438 34.1942 21.3092 34.1425 21.2857 34.0856C21.2621 34.0288 21.25 33.9678 21.25 33.9062V32.5H22.1875V33.4968C22.4851 33.5744 22.7592 33.7236 22.9858 33.9315C23.2124 34.1395 23.3846 34.3997 23.4874 34.6895C24.2942 34.4461 25.1403 34.3595 25.9797 34.4346L25.8953 35.3682C25.0121 35.2894 24.1227 35.4194 23.2991 35.7477C23.2437 35.7699 23.1846 35.7812 23.125 35.7812Z" fill="#31C292"/>
<path d="M22.1875 31.5624H21.25V30.1562C21.25 30.0947 21.2621 30.0337 21.2857 29.9768C21.3092 29.9199 21.3438 29.8683 21.3873 29.8247C21.4308 29.7812 21.4825 29.7467 21.5393 29.7231C21.5962 29.6996 21.6572 29.6874 21.7188 29.6874C21.9673 29.6871 22.2056 29.5883 22.3813 29.4125C22.5571 29.2368 22.656 28.9985 22.6562 28.7499C22.6562 28.6481 22.6894 28.549 22.7508 28.4677C22.8121 28.3864 22.8982 28.3272 22.9962 28.2992L23.3836 28.1886C24.5318 27.8596 25.7318 27.7505 26.9204 27.8672L26.8296 28.8003C25.758 28.6951 24.6762 28.7934 23.6412 29.09L23.5584 29.1136C23.4892 29.4599 23.3239 29.7798 23.0815 30.0365C22.8391 30.2933 22.5293 30.4767 22.1875 30.5656V31.5624Z" fill="#31C292"/>
<path d="M23.1941 32.1861L23.0558 31.2588C23.8565 31.1398 24.6653 31.085 25.4747 31.0949L25.4628 32.0323C24.7037 32.023 23.945 32.0744 23.1941 32.1861Z" fill="#31C292"/>
<path d="M29.2188 34.8438C30.5131 34.8438 31.5625 33.7944 31.5625 32.5C31.5625 31.2056 30.5131 30.1562 29.2188 30.1562C27.9244 30.1562 26.875 31.2056 26.875 32.5C26.875 33.7944 27.9244 34.8438 29.2188 34.8438Z" fill="#31C292"/>
<path d="M36.25 34.8931C35.9525 34.9707 35.6785 35.1198 35.4519 35.3277C35.2253 35.5356 35.0531 35.7958 34.9502 36.0856C34.8923 36.068 34.8339 36.0521 34.7754 36.0362C34.6803 36.3593 34.4892 36.646 34.2275 36.8581C34.592 36.9623 34.9818 37.0813 35.1384 37.144C35.2096 37.1724 35.2866 37.183 35.3627 37.1748C35.4389 37.1666 35.5119 37.1399 35.5753 37.0969C35.6388 37.054 35.6907 36.9962 35.7266 36.9285C35.7625 36.8608 35.7813 36.7854 35.7813 36.7088C35.7816 36.4602 35.8805 36.2219 36.0562 36.0462C36.232 35.8704 36.4703 35.7716 36.7188 35.7713C36.7803 35.7713 36.8413 35.7592 36.8982 35.7356C36.9551 35.712 37.0068 35.6775 37.0502 35.634C37.0938 35.5905 37.1283 35.5388 37.1519 35.482C37.1754 35.4251 37.1876 35.3641 37.1875 35.3025V33.8963H36.25V34.8931Z" fill="#00B378"/>
<path d="M36.7188 31.0837C36.4702 31.0835 36.2319 30.9846 36.0562 30.8089C35.8804 30.6331 35.7815 30.3948 35.7812 30.1462C35.7812 30.0444 35.7481 29.9453 35.6867 29.864C35.6254 29.7827 35.5393 29.7235 35.4413 29.6956L35.0536 29.5848C35.0423 29.5816 34.951 29.5559 34.8438 29.5258V30.4998L34.8791 30.5099C34.9483 30.8563 35.1136 31.1761 35.356 31.4328C35.5984 31.6896 35.9082 31.873 36.25 31.9619V32.9587H37.1875V31.5525C37.1875 31.491 37.1754 31.43 37.1518 31.3731C37.1283 31.3162 37.0938 31.2646 37.0502 31.2211C37.0067 31.1775 36.955 31.143 36.8981 31.1194C36.8413 31.0959 36.7803 31.0837 36.7188 31.0837Z" fill="#00B378"/>
<path d="M38.8871 26.9781C38.8324 26.9342 38.7684 26.9031 38.7001 26.8872C38.6317 26.8713 38.5607 26.8709 38.4921 26.8861L38.0467 26.9851C37.148 27.1844 36.2326 27.2994 35.3125 27.3285V25.9374C35.3126 25.7751 35.2914 25.6134 35.2497 25.4564C36.0589 25.9158 36.729 26.1467 37.2546 26.1467C37.5991 26.1467 37.8813 26.0477 38.1012 25.8497C39.0725 24.9732 38.0626 22.8118 36.9677 21.0571L38.8025 18.4756C38.9893 18.2154 39.0812 17.8988 39.0625 17.579C39.0439 17.2592 38.916 16.9555 38.7002 16.7187L34.6828 12.2677C34.4694 12.0288 34.1803 11.8705 33.864 11.8193C33.5478 11.7681 33.2236 11.8271 32.9456 11.9864L30.3261 13.4709C28.7085 12.1063 26.0572 10.1994 24.9103 11.2348C24.2518 11.8291 24.4234 13.0797 25.4201 14.9518C25.6423 15.369 25.8997 15.8056 26.1877 16.2556C25.8604 16.1484 25.5182 16.0938 25.1738 16.0937H23.5295L23.3721 14.6242C23.2912 13.8692 22.9339 13.1708 22.3692 12.6632C21.8044 12.1557 21.0719 11.875 20.3125 11.875C19.5532 11.875 18.8207 12.1557 18.2559 12.6632C17.6912 13.1708 17.3339 13.8692 17.253 14.6242L17.0956 16.0937H15.4513C14.6177 16.0953 13.8158 16.4134 13.2079 16.9838C12.5999 17.5541 12.2313 18.3341 12.1767 19.1659L11.1295 35.5722C11.1009 36.0198 11.1644 36.4685 11.316 36.8905C11.4677 37.3127 11.7042 37.6992 12.0111 38.0263C12.318 38.3533 12.6886 38.6141 13.1002 38.7923C13.5118 38.9705 13.9555 39.0624 14.404 39.0624H18.4375V38.1249H15.6779L16.9335 26.4062H21.1312C20.6487 26.5446 20.1736 26.7072 19.7075 26.8934L19.6695 26.9086C19.5826 26.9434 19.5081 27.0035 19.4556 27.081C19.4031 27.1586 19.3751 27.2501 19.375 27.3437V38.1249C19.375 38.2016 19.3938 38.2771 19.4297 38.3447C19.4657 38.4124 19.5176 38.4702 19.5811 38.5132C19.6446 38.5561 19.7176 38.5829 19.7937 38.5911C19.87 38.5993 19.947 38.5886 20.0181 38.5601L20.0559 38.5449C22.9746 37.3832 26.1955 37.2184 29.2175 38.0764L30.5297 38.4513C33.0441 39.1676 35.6974 39.2468 38.2501 38.6815L38.6955 38.5826C38.7996 38.5594 38.8927 38.5015 38.9595 38.4183C39.0262 38.3351 39.0625 38.2316 39.0625 38.1249V27.3437C39.0625 27.2735 39.0468 27.2042 39.0164 27.141C38.9861 27.0777 38.9419 27.022 38.8871 26.9781ZM33.4079 12.8021C33.5005 12.749 33.6086 12.7293 33.714 12.7464C33.8194 12.7635 33.9158 12.8162 33.9869 12.8958L38.0043 17.3469V17.347C38.0762 17.4259 38.1188 17.5271 38.125 17.6337C38.1312 17.7402 38.1006 17.8457 38.0384 17.9324L36.1864 20.5381C34.8752 19.9653 33.7012 19.1196 32.7425 18.0575C31.7838 16.9953 31.0625 15.741 30.6266 14.3781L33.4079 12.8021ZM25.5384 11.9307C25.7684 11.7233 27.1025 12.004 29.6067 14.0915C29.5981 14.1544 29.6024 14.2183 29.6193 14.2795C30.0756 15.9169 30.905 17.4262 32.0423 18.6894C33.179 19.9456 34.5904 20.9225 36.1664 21.544C36.7628 22.4996 37.1891 23.3551 37.4036 24.0293C37.6351 24.7575 37.5563 25.0787 37.4732 25.1537C37.3484 25.2665 36.6568 25.3121 34.9786 24.1846C33.4945 23.1875 31.7668 21.6298 30.1139 19.7985C28.461 17.9672 27.088 16.0894 26.2476 14.5112C25.2976 12.7267 25.4136 12.0434 25.5384 11.9307ZM32.5 24.9999H33.4375C33.6861 25.0002 33.9244 25.0991 34.1002 25.2749C34.2759 25.4506 34.3748 25.6889 34.375 25.9374V33.8034C34.0233 33.5644 33.6078 33.4369 33.1826 33.4374H32.5V24.9999ZM32.0313 24.0624C31.907 24.0624 31.7878 24.1118 31.6999 24.1998C31.6119 24.2877 31.5626 24.4069 31.5625 24.5312V26.9666C31.3021 26.9072 31.0427 26.8416 30.7872 26.7686L29.4751 26.3937C29.2843 26.3392 29.0926 26.2887 28.9001 26.2421L28.4583 19.3213C28.7664 19.6902 29.0862 20.0586 29.418 20.4266C30.6871 21.8327 32.004 23.0854 33.2326 24.0624H32.0313ZM27.948 26.0431C27.6762 25.9955 27.4033 25.9556 27.1294 25.9234C27.3785 25.7697 27.606 25.5836 27.8061 25.3701C27.8379 25.3362 27.8683 25.3015 27.8985 25.2666L27.948 26.0431ZM25.1738 17.0312C25.7692 17.0324 26.3421 17.2596 26.7763 17.667C27.2105 18.0744 27.4738 18.6315 27.5129 19.2257L27.7522 22.9761C27.7726 23.2957 27.7272 23.6162 27.6188 23.9177C27.5105 24.2191 27.3415 24.4952 27.1223 24.7287C26.9031 24.9623 26.6384 25.1485 26.3445 25.2757C26.0505 25.403 25.7336 25.4687 25.4132 25.4687H24.534L23.63 17.0312H25.1738ZM18.1852 14.7241C18.2414 14.1991 18.4898 13.7135 18.8825 13.3606C19.2752 13.0077 19.7846 12.8125 20.3125 12.8125C20.8405 12.8125 21.3499 13.0077 21.7426 13.3606C22.1353 13.7135 22.3837 14.1991 22.4399 14.7241L22.5867 16.0937H18.0384L18.1852 14.7241ZM14.7351 38.1249H14.404C14.0837 38.1249 13.7667 38.0593 13.4727 37.932C13.1788 37.8047 12.914 37.6185 12.6948 37.3848C12.4756 37.1512 12.3066 36.8751 12.1983 36.5736C12.09 36.2721 12.0446 35.9516 12.065 35.632L12.7266 25.2666C12.7568 25.3015 12.7872 25.3362 12.819 25.3701C13.1246 25.6987 13.4951 25.9604 13.9069 26.1387C14.3188 26.317 14.7631 26.4081 15.2119 26.4062H15.9906L14.7351 38.1249ZM16.0911 25.4687H15.2119C14.8915 25.4687 14.5746 25.403 14.2807 25.2757C13.9867 25.1485 13.722 24.9623 13.5028 24.7288C13.2836 24.4952 13.1146 24.2191 13.0063 23.9177C12.8979 23.6163 12.8525 23.2958 12.8728 22.9762L13.1122 19.2257C13.1513 18.6315 13.4146 18.0744 13.8488 17.667C14.2831 17.2596 14.8558 17.0324 15.4513 17.0312H16.9951L16.0911 25.4687ZM17.034 25.4687L17.938 17.0312H22.6872L23.5911 25.4687H17.034ZM29.4452 37.1667C26.4442 36.3217 23.2559 36.4197 20.3125 37.4477V27.664C23.1652 26.5923 26.286 26.4631 29.2175 27.2951L30.5297 27.6701C30.8695 27.7671 31.2155 27.8531 31.5625 27.9273V33.9062C31.5626 34.0305 31.6119 34.1498 31.6999 34.2377C31.7878 34.3255 31.907 34.3749 32.0313 34.3749H33.1826C33.462 34.375 33.7324 34.4731 33.9469 34.6521C34.1613 34.8312 34.3061 35.0798 34.3559 35.3547C34.4058 35.6296 34.3575 35.9133 34.2196 36.1562C34.0816 36.3991 33.8629 36.586 33.6012 36.6841C32.2756 37.1796 30.8492 37.3453 29.4452 37.1667ZM38.125 37.7489L38.0467 37.7663C36.2645 38.1609 34.4248 38.2226 32.6201 37.9485C33.0655 37.8509 33.5034 37.7216 33.9305 37.5618C34.2437 37.4437 34.5245 37.2531 34.7498 37.0056C34.8811 37.0472 35.011 37.093 35.1385 37.144C35.2096 37.1724 35.2866 37.183 35.3628 37.1748C35.4389 37.1666 35.5119 37.1399 35.5754 37.0969C35.6388 37.054 35.6907 36.9961 35.7266 36.9285C35.7625 36.8608 35.7813 36.7854 35.7813 36.7087C35.7816 36.4602 35.8805 36.2219 36.0562 36.0462C36.232 35.8704 36.4703 35.7715 36.7188 35.7712C36.8431 35.7712 36.9623 35.7218 37.0502 35.6339C37.1381 35.5461 37.1875 35.4268 37.1875 35.3025V33.8962H36.25V34.8931C35.8868 34.9876 35.5603 35.1889 35.3125 35.4709V31.3836C35.5601 31.6658 35.8867 31.8672 36.25 31.9619V32.9587H37.1875V31.5525C37.1875 31.4282 37.1381 31.309 37.0502 31.2211C36.9623 31.1331 36.8431 31.0838 36.7188 31.0837C36.4703 31.0835 36.232 30.9846 36.0562 30.8089C35.8805 30.6331 35.7816 30.3948 35.7813 30.1462C35.7813 30.0444 35.7481 29.9453 35.6868 29.864C35.6254 29.7827 35.5392 29.7235 35.4413 29.6955L35.3125 29.6587V28.2665C36.2583 28.2384 37.1997 28.1249 38.125 27.9275V37.7489Z" fill="#2C2C51"/>
<path d="M29.2188 30.625C29.6245 30.6238 30.0195 30.7553 30.3435 30.9996L30.9066 30.2501C30.4887 29.9366 29.9918 29.7458 29.4716 29.6989C28.9514 29.6519 28.4284 29.7508 27.9612 29.9844C27.4941 30.218 27.1011 30.5771 26.8266 31.0214C26.5519 31.4657 26.4065 31.9777 26.4065 32.5C26.4065 33.0223 26.5519 33.5343 26.8266 33.9786C27.1011 34.4229 27.4941 34.782 27.9612 35.0156C28.4284 35.2492 28.9514 35.3481 29.4716 35.3011C29.9918 35.2542 30.4887 35.0634 30.9066 34.7499L30.3435 34.0004C30.0195 34.2447 29.6245 34.3762 29.2188 34.375C28.7215 34.375 28.2446 34.1775 27.893 33.8258C27.5413 33.4742 27.3438 32.9973 27.3438 32.5C27.3438 32.0027 27.5413 31.5258 27.893 31.1742C28.2446 30.8225 28.7215 30.625 29.2188 30.625Z" fill="#2C2C51"/>
<path d="M23.4874 34.6895C23.3846 34.3997 23.2124 34.1395 22.9858 33.9316C22.7591 33.7236 22.4851 33.5744 22.1875 33.4969V32.5H21.25V33.9062C21.25 34.0306 21.2994 34.1498 21.3873 34.2377C21.4752 34.3256 21.5944 34.375 21.7188 34.375C21.9673 34.3753 22.2056 34.4741 22.3813 34.6499C22.5571 34.8256 22.656 35.0639 22.6563 35.3125C22.6563 35.3891 22.675 35.4646 22.7109 35.5322C22.7468 35.5999 22.7988 35.6577 22.8622 35.7007C22.9256 35.7436 22.9986 35.7704 23.0748 35.7786C23.151 35.7868 23.2279 35.7762 23.2991 35.7477C24.1227 35.4193 25.0121 35.2893 25.8953 35.3683L25.9797 34.4346C25.1403 34.3596 24.2942 34.4461 23.4874 34.6895Z" fill="#2C2C51"/>
<path d="M26.9204 27.8673C25.7318 27.7505 24.5318 27.8595 23.3836 28.1886L22.9963 28.2992C22.8983 28.3272 22.8121 28.3864 22.7508 28.4677C22.6894 28.549 22.6562 28.6481 22.6562 28.7499C22.656 28.9985 22.5571 29.2368 22.3813 29.4126C22.2056 29.5883 21.9673 29.6872 21.7188 29.6874C21.5944 29.6875 21.4752 29.7368 21.3873 29.8248C21.2994 29.9127 21.25 30.0319 21.25 30.1562V31.5624H22.1875V30.5656C22.5293 30.4767 22.8391 30.2934 23.0815 30.0366C23.3239 29.7798 23.4892 29.46 23.5584 29.1136L23.6412 29.09C24.6762 28.7934 25.758 28.6952 26.8296 28.8003L26.9204 27.8673Z" fill="#2C2C51"/>
<path d="M25.4628 32.0322L25.4747 31.0949C24.6653 31.085 23.8565 31.1398 23.0558 31.2587L23.1941 32.1861C23.945 32.0741 24.7037 32.0228 25.4628 32.0322Z" fill="#2C2C51"/>
<path d="M17.0312 32.0312V36.7188C17.0312 36.8431 17.0806 36.9623 17.1685 37.0502C17.2565 37.1381 17.3757 37.1875 17.5 37.1875H18.4375V36.25H17.9688V32.5H18.4375V31.5625H17.5C17.3757 31.5625 17.2565 31.6119 17.1685 31.6998C17.0806 31.7877 17.0312 31.9069 17.0312 32.0312Z" fill="#2C2C51"/>
<path d="M22.1875 22.6562H18.4375V23.5938H22.1875V22.6562Z" fill="#2C2C51"/>
</svg>
