<svg width="50" height="50" viewBox="0 0 50 50" fill="none" xmlns="http://www.w3.org/2000/svg">
<rect width="50" height="50" rx="25" fill="#668C36"/>
<path d="M38.5938 17.9688V19.8438H11.4062V17.9688L25 11.4062L38.5938 17.9688Z" fill="#FF9811"/>
<path d="M36.7188 32.9688H13.2812V34.8438H36.7188V32.9688Z" fill="#FFB655"/>
<path d="M37.6562 34.8438H12.3438V36.7188H37.6562V34.8438Z" fill="#FFA733"/>
<path d="M38.5938 36.7188H11.4062V38.5938H38.5938V36.7188Z" fill="#FF9811"/>
<path d="M36.7188 21.7188H13.2812V23.5938H36.7188V21.7188Z" fill="#FFB655"/>
<path d="M37.6562 19.8438H12.3438V21.7188H37.6562V19.8438Z" fill="#FFA733"/>
<path d="M27.3438 23.5938H22.6562V25.4688H27.3438V23.5938Z" fill="#BCBEC0"/>
<path d="M27.3438 31.0938H22.6562V32.9688H27.3438V31.0938Z" fill="#BCBEC0"/>
<path d="M26.4062 25.4688H23.5938V31.0938H26.4062V25.4688Z" fill="#D1D3D4"/>
<path d="M35.7812 23.5938H31.0938V25.4688H35.7812V23.5938Z" fill="#BCBEC0"/>
<path d="M35.7812 31.0938H31.0938V32.9688H35.7812V31.0938Z" fill="#BCBEC0"/>
<path d="M34.8438 25.4688H32.0312V31.0938H34.8438V25.4688Z" fill="#D1D3D4"/>
<path d="M18.9062 23.5938H14.2188V25.4688H18.9062V23.5938Z" fill="#BCBEC0"/>
<path d="M18.9062 31.0938H14.2188V32.9688H18.9062V31.0938Z" fill="#BCBEC0"/>
<path d="M17.9688 25.4688H15.1562V31.0938H17.9688V25.4688Z" fill="#D1D3D4"/>
<path d="M25 17.0312C25.7767 17.0312 26.4062 16.4017 26.4062 15.625C26.4062 14.8483 25.7767 14.2188 25 14.2188C24.2233 14.2188 23.5938 14.8483 23.5938 15.625C23.5938 16.4017 24.2233 17.0312 25 17.0312Z" fill="#FF5023"/>
</svg>
