<svg width="50" height="50" viewBox="0 0 50 50" fill="none" xmlns="http://www.w3.org/2000/svg">
<rect width="50" height="50" rx="25" fill="#6488BF"/>
<g clip-path="url(#clip0_5_317)">
<path d="M18.5026 32.376L13.8925 11.7578H10.5763V10H15.3007L20.2181 31.9924L18.5026 32.376Z" fill="#BD9B7B"/>
<path d="M32.8831 12.2C32.4923 11.5824 31.8835 11.1535 31.1698 10.9936C30.4562 10.833 29.7232 10.9602 29.105 11.3516C28.8454 11.5162 28.447 11.8543 27.8247 12.8862C27.8247 12.8856 27.8241 12.8856 27.8241 12.885C27.8042 12.8522 27.7849 12.8199 27.765 12.7883C27.1761 11.8326 26.7958 11.511 26.5445 11.3516C25.9263 10.9602 25.1933 10.833 24.4796 10.9936C23.7659 11.1535 23.1572 11.5824 22.7657 12.2C21.9583 13.4762 22.3386 15.1707 23.6142 15.9787H23.6148C23.9077 16.1645 24.4773 16.4147 26.0529 16.5219L26.0511 16.5266L26.1917 16.5307C26.279 16.536 26.3687 16.5412 26.4624 16.5453C26.9218 16.567 27.353 16.5729 27.6823 16.5729C27.7105 16.5729 27.738 16.5729 27.765 16.5723H27.8247C27.8698 16.5723 27.9167 16.5729 27.9671 16.5729C28.2958 16.5729 28.7277 16.567 29.1864 16.5453C29.2802 16.5412 29.3698 16.536 29.4572 16.5307L29.5984 16.5266L29.5966 16.5219C31.1722 16.4147 31.7417 16.1645 32.0347 15.9787C33.3103 15.1707 33.6911 13.4761 32.8831 12.2ZM26.8152 14.8028C25.7253 14.7629 24.7995 14.6451 24.5546 14.4934C24.0982 14.2045 23.9616 13.5975 24.2511 13.1404C24.3911 12.9196 24.6091 12.766 24.8646 12.7086C25.12 12.6512 25.3825 12.6969 25.604 12.8369C25.8443 12.9922 26.3441 13.7744 26.8456 14.7395C26.8351 14.7612 26.8251 14.7822 26.8152 14.8028ZM31.0943 14.4934C30.8505 14.6451 29.9247 14.7623 28.8337 14.8028C28.8238 14.7817 28.8138 14.7606 28.8038 14.7395C29.3042 13.7744 29.804 12.9928 30.0454 12.8369C30.2042 12.7362 30.3841 12.684 30.5681 12.684C30.6402 12.684 30.7128 12.6922 30.7849 12.7086C31.0404 12.766 31.2583 12.9196 31.3984 13.1404C31.6872 13.5975 31.5514 14.2045 31.0943 14.4934Z" fill="#31CA8B"/>
<path d="M32.8831 12.2C32.4923 11.5824 31.8835 11.1535 31.1699 10.9936C30.4562 10.833 29.7232 10.9602 29.105 11.3516C28.8454 11.5162 28.447 11.8543 27.8247 12.8862C27.8247 12.8856 27.8242 12.8856 27.8242 12.885V16.5723H27.8247C27.8699 16.5723 27.9167 16.5729 27.9671 16.5729C28.2958 16.5729 28.7277 16.567 29.1865 16.5453C29.2802 16.5412 29.3699 16.536 29.4572 16.5307L29.5984 16.5266L29.5966 16.5219C31.1722 16.4147 31.7417 16.1645 32.0347 15.9787C33.3103 15.1707 33.6911 13.4761 32.8831 12.2ZM31.0943 14.4934C30.8505 14.6451 29.9247 14.7623 28.8337 14.8028C28.8238 14.7817 28.8138 14.7606 28.8038 14.7395C29.3042 13.7744 29.804 12.9928 30.0454 12.8369C30.2042 12.7362 30.3841 12.684 30.5681 12.684C30.6402 12.684 30.7128 12.6922 30.7849 12.7086C31.0404 12.766 31.2583 12.9196 31.3984 13.1404C31.6872 13.5975 31.5514 14.2045 31.0943 14.4934Z" fill="#00A754"/>
<path d="M34.4957 14.7133H21.1527V25.4787H34.4957V14.7133Z" fill="#FF6187"/>
<path d="M34.4957 14.7133H27.8242V25.4787H34.4957V14.7133Z" fill="#FF0435"/>
<path d="M29.2352 14.7133H26.4139V25.4787H29.2352V14.7133Z" fill="#31CA8B"/>
<path d="M29.2346 14.7133H27.8242V25.4787H29.2346V14.7133Z" fill="#00A754"/>
<path d="M39.4238 20.9945L36.7085 33.0631H18.6564L15.9581 20.9945H39.4238Z" fill="#FFAA20"/>
<path d="M39.4237 20.9945L36.7085 33.0631H27.8245V20.9945H39.4237Z" fill="#FF8900"/>
<path d="M25.7901 37.1553C25.7901 38.7238 24.514 40 22.9454 40C21.3774 40 20.1013 38.7238 20.1013 37.1553C20.1013 35.5873 21.3774 34.3111 22.9454 34.3111C24.514 34.3111 25.7901 35.5873 25.7901 37.1553Z" fill="#BD9B7B"/>
<path d="M35.5876 37.1553C35.5876 38.7238 34.312 40 32.7435 40C31.1749 40 29.8987 38.7238 29.8987 37.1553C29.8987 35.5873 31.1749 34.3111 32.7435 34.3111C34.312 34.3111 35.5876 35.5873 35.5876 37.1553Z" fill="#A17852"/>
<path d="M28.7025 20.9945H26.9447V33.0631H28.7025V20.9945Z" fill="#FFDBA9"/>
<path d="M23.9052 33.0631H22.1344L20.6708 20.9945H22.4421L23.9052 33.0631Z" fill="#FFDBA9"/>
<path d="M34.8341 20.9945L33.371 33.0631H31.6003L33.0634 20.9945H34.8341Z" fill="#FFB74F"/>
<path d="M28.7025 20.9945H27.8242V33.0631H28.7025V20.9945Z" fill="#FFB74F"/>
</g>
<defs>
<clipPath id="clip0_5_317">
<rect width="30" height="30" fill="white" transform="translate(10 10)"/>
</clipPath>
</defs>
</svg>
