<svg width="50" height="50" viewBox="0 0 50 50" fill="none" xmlns="http://www.w3.org/2000/svg">
<rect width="50" height="50" rx="25" fill="#63AED9"/>
<path d="M38.1156 31.7547C37.2906 31.0117 35.7484 29.6172 31.7828 28.668C30.7844 28.4289 28.6656 27.8664 25.164 27.8523C22.8344 27.843 19.5086 27.993 16.6867 28.7781C15.4258 29.1297 15.6765 29.507 16.5789 29.343C17.9476 29.0945 18.9625 29.1156 20.3429 29.1438C20.8445 29.1531 22.2812 29.2469 23.4484 29.5047C24.4797 29.7344 25.2648 30.1188 25.5109 30.3508C25.6937 30.5242 26.2164 31.0234 26.0992 31.4664C25.9234 32.1273 24.5101 31.968 24.2383 32.7883C24.1351 33.0977 24.2523 33.3789 24.2758 33.4328C24.4562 33.8406 24.9297 34.0258 25.8625 34.2086C29.0008 34.8297 27.5922 34.6891 28.9 34.7945C32.1461 35.0594 33.3414 34.907 35.0617 35.6336C36.0531 36.0531 36.2687 36.3602 36.2898 36.6156C36.3062 36.7914 36.2664 37.3891 34.2461 38.3031C33.9789 38.425 34.5601 39.0273 36.9765 37.75C38.2281 36.9109 39.3461 35.6992 39.3719 34.2133C39.3906 33.2031 38.875 32.4391 38.1156 31.7547Z" fill="#3FBFE7"/>
<path d="M36.2899 36.6203C36.2664 36.3672 36.1938 36.1094 35.2516 35.6781C33.9367 35.0781 32.2609 34.9797 29.0172 34.6891C27.2641 34.532 27.2992 34.4922 25.8602 34.2109C24.9297 34.0281 24.4539 33.843 24.2734 33.4352C24.25 33.3812 24.1328 33.1 24.2359 32.7906C24.5078 31.9703 25.9234 32.1297 26.0969 31.4687C26.2141 31.0258 25.6914 30.5266 25.5086 30.3531C25.2625 30.1187 24.4774 29.7367 23.4461 29.507C22.2789 29.2469 20.8399 29.1555 20.3406 29.1461C18.7914 29.1133 17.8586 29.0992 16.5766 29.3453C16.5766 29.3453 13.2719 29.9781 11.3383 31.8367C10.8836 32.3242 10.4617 32.9453 10.4266 33.7609C10.4266 33.7727 10.4266 33.7867 10.4242 33.8031C10.4242 33.8031 10.4008 34.7359 11.0969 35.7109C12.6484 37.8859 17.8656 38.9617 17.8656 38.9617C21.1891 39.6461 23.7274 39.6883 25.8508 39.7141C28.3914 39.7422 30.932 39.5922 33.4375 38.6406C33.7047 38.5398 33.9742 38.432 34.2414 38.3102C36.2664 37.3938 36.3063 36.7961 36.2899 36.6203Z" fill="#F7C977"/>
<path d="M31.3375 32.9828C31.5766 33.482 33.2336 33.7188 33.1469 34.2672C33.0602 34.8156 31.4195 34.5297 31.0281 34.9211C30.6344 35.3125 30.9133 36.9531 30.3672 37.0398C29.8187 37.1242 29.582 35.4789 29.0898 35.2258C28.5953 34.9727 27.1234 35.7461 26.8727 35.2516C26.6219 34.757 28.1148 34.0234 28.2016 33.475C28.2883 32.9266 27.1 31.7664 27.4937 31.3727C27.8852 30.9813 29.043 32.1625 29.5937 32.0875C30.1562 32.0125 30.9789 30.5359 31.4734 30.8148C31.9398 31.0844 31.1031 32.493 31.3375 32.9828Z" fill="#F79329"/>
<path d="M19.6984 32.0242C19.6422 32.0125 19.5859 31.9961 19.532 31.9703C19.356 31.8903 19.2188 31.7437 19.1507 31.5626C19.0826 31.3816 19.0891 31.1809 19.1688 31.0047L23.6336 21.1211C23.7138 20.9452 23.8605 20.8082 24.0414 20.7401C24.2224 20.6721 24.4229 20.6784 24.5992 20.7578C24.9649 20.9242 25.1289 21.3555 24.9625 21.7234L20.4977 31.6094C20.4299 31.7579 20.3144 31.8794 20.1696 31.9546C20.0247 32.0298 19.8589 32.0543 19.6984 32.0242Z" fill="#78A3AD"/>
<path d="M28.5812 14.2844L28.525 14.2586C28.5461 14.268 28.5672 14.2797 28.5883 14.2891L28.5812 14.2844ZM27.9648 14.5094C28.4547 16.0984 29.5 20.7391 27.4328 26.7812C27.4351 26.7719 27.4398 26.7625 27.4422 26.7531C31.1055 25.8063 33.4281 27.7867 33.475 27.8266C34.3047 20.5562 29.4765 15.4984 28.1101 14.2281L28.0515 14.3687C28.0305 14.425 28 14.4695 27.9648 14.5094ZM27.168 14.0055L27.2125 13.9C25.368 13.9023 19.2156 14.343 15.1984 19.8062C15.3086 19.818 18.2523 20.4227 20.2586 23.282L20.2516 23.3008C22.5625 17.8937 25.8133 15.2195 27.1469 14.2984C27.1234 14.2047 27.1281 14.1039 27.168 14.0055Z" fill="white"/>
<path d="M28.5883 14.2891C28.5672 14.2797 28.5461 14.268 28.525 14.2586C28.4054 14.2023 28.2883 14.1484 28.1664 14.0945L28.1101 14.2305C29.4765 15.5008 34.3047 20.5563 33.475 27.8289C33.4281 27.7867 31.1054 25.8086 27.4422 26.7555C27.4398 26.7648 27.4351 26.7742 27.4328 26.7836C29.5 20.7391 28.4547 16.1008 27.9648 14.5117C27.8617 14.6242 27.7094 14.6828 27.557 14.6664C27.459 14.6559 27.3668 14.615 27.2932 14.5495C27.2197 14.4839 27.1685 14.3969 27.1469 14.3008C25.8133 15.2219 22.5625 17.8961 20.2515 23.3031L20.2586 23.2844C18.25 20.425 15.3086 19.8203 15.1984 19.8063C19.2156 14.343 25.368 13.9023 27.2125 13.9L27.2851 13.7266C21.1492 11.3641 14.7578 12.6484 11.1531 16.5766C10.9164 16.8344 10.9679 17.2586 11.2562 17.432C12.1375 17.9664 13.8133 19.1406 14.5797 20.7508C14.6054 20.7602 18.4304 22.0469 19.7101 24.6836C19.7406 24.6859 24.0648 24.8969 27.107 27.6742C27.107 27.6766 27.1047 27.6789 27.1047 27.6789C27.1047 27.6789 30.5687 26.7203 33.3226 28.8555C33.3297 28.8203 33.3344 28.7875 33.339 28.7547L33.325 28.8484C33.325 28.8484 35.4461 27.6391 37.5789 28.3773C37.8554 28.4734 38.1437 28.2391 38.1414 27.925C38.1062 22.5438 34.4195 17.0641 28.5883 14.2891Z" fill="#196CA2"/>
<path d="M27.2125 13.9023L27.1679 14.0078C27.1281 14.1039 27.1234 14.2047 27.1445 14.3008C27.1797 14.4461 27.2781 14.5727 27.4258 14.6336C27.4679 14.65 27.5101 14.6617 27.5547 14.6664C27.6579 14.6771 27.7619 14.6545 27.8513 14.6017C27.9408 14.549 28.0109 14.469 28.0515 14.3734L28.1101 14.2328L28.1664 14.0969L28.7218 12.7516C28.8226 12.5078 28.7078 12.2266 28.4617 12.1258C28.2179 12.025 27.939 12.1422 27.8359 12.3859L27.2804 13.7289L27.2125 13.9023Z" fill="#78A3AD"/>
</svg>
