<svg xmlns="http://www.w3.org/2000/svg" xmlns:xlink="http://www.w3.org/1999/xlink" width="1024" zoomAndPan="magnify" viewBox="0 0 768 767.999994" height="1024" preserveAspectRatio="xMidYMid meet" version="1.0"><defs><g/></defs><g fill="#e42c24" fill-opacity="1"><g transform="translate(153.498708, 447.417491)"><g><path d="M 151.835938 -146.632812 C 144.589844 -127.277344 138.316406 -111.855469 132.511719 -97.367188 C 126.453125 -82.554688 119.855469 -65.039062 115.023438 -52.132812 C 108.640625 -35.230469 102.003906 -25.03125 88.453125 -25.683594 C 80.199219 -26.117188 83.445312 -37.652344 85.210938 -42.265625 L 118.0625 -135.683594 L 104.261719 -140.695312 C 96.722656 -121.304688 90.738281 -105.914062 84.933594 -91.425781 C 78.875 -76.613281 72.277344 -59.097656 67.15625 -46.160156 C 60.773438 -29.257812 53.417969 -17.796875 40.875 -19.746094 C 32.515625 -21.042969 35.867188 -31.710938 37.636719 -36.324219 C 48.921875 -70.238281 58.40625 -92.800781 70.199219 -129.707031 L 58.773438 -136.773438 L 53.511719 -132.015625 C 48.535156 -127.296875 40.316406 -125.097656 35.054688 -125.027344 C 25.648438 -125.316406 15.628906 -125.824219 7.480469 -120.707031 C -2.25 -114.21875 -8.128906 -102.652344 -8.707031 -81.496094 L 5.421875 -80.914062 C 6 -97.386719 9.460938 -104.847656 15.445312 -108.523438 C 21.105469 -112.449219 29.5 -110.863281 35.375 -110.71875 C 39.160156 -110.898438 44.351562 -111.546875 49.6875 -113.382812 C 41.5 -89.8125 32.339844 -64.65625 23.867188 -41.050781 C 19.035156 -25.804688 20.90625 -6.125 40.042969 -5.292969 C 53.234375 -5.179688 63.367188 -10.839844 71.117188 -21.46875 C 76.015625 -12.710938 85.386719 -10.367188 94.328125 -11.480469 C 115.953125 -14.179688 124.355469 -36.023438 128.25 -47.050781 C 133.082031 -59.953125 140.003906 -77.214844 145.773438 -91.992188 L 165.351562 -141.585938 Z M 151.835938 -146.632812 "/></g></g></g><g fill="#e42c24" fill-opacity="1"><g transform="translate(295.366482, 429.708403)"><g><path d="M 41.753906 -101.851562 C 41 -107.90625 35.484375 -112.195312 29.71875 -111.476562 C 23.664062 -110.71875 19.371094 -105.207031 20.128906 -99.152344 C 20.882812 -93.09375 26.363281 -89.09375 32.417969 -89.847656 C 38.183594 -90.570312 42.511719 -95.796875 41.753906 -101.851562 Z M 12.183594 -0.933594 C 26.3125 -2.699219 38.0625 -16.464844 47.257812 -34.304688 L 34.464844 -40.613281 C 26.890625 -26.199219 19.898438 -16.539062 9.230469 -15.207031 C 9.050781 -16.648438 9.085938 -21.046875 13.339844 -31.535156 C 17.34375 -41.699219 29.566406 -72.800781 32.523438 -79.613281 L 18.972656 -84.949219 C 16.304688 -78.175781 4.082031 -47.070312 -0.210938 -36.871094 C -4.175781 -26.421875 -7.855469 -13.660156 -1.910156 -5.910156 C 0.179688 -3.242188 4.398438 0.0351562 12.183594 -0.933594 Z M 12.183594 -0.933594 "/></g></g></g><g fill="#e42c24" fill-opacity="1"><g transform="translate(330.256732, 425.353119)"><g><path d="M 69.894531 -45.332031 C 63.980469 -34.050781 58.285156 -25.726562 51.148438 -21.90625 C 55.800781 -33.90625 48.449219 -48.21875 43.152344 -57.804688 C 40.089844 -63.574219 36.992188 -69.628906 35.335938 -75.863281 C 37.96875 -82.929688 36.3125 -91.507812 27.949219 -90.464844 C 21.027344 -89.597656 19.800781 -83.003906 20.414062 -78.101562 C 13.671875 -61.738281 2.710938 -41.628906 -5.292969 -23.644531 L 2.5625 -19.355469 C 6.054688 -7.785156 15.28125 0.433594 27.105469 -1.039062 C 32.871094 -1.761719 38.640625 -4.824219 43.109375 -8.894531 L 42.929688 -5.652344 C 42.929688 -5.652344 43.539062 -5.433594 43.828125 -5.472656 C 53.597656 -4.640625 62.175781 -10.984375 68.339844 -17.902344 C 74.324219 -23.921875 78.652344 -31.488281 82.6875 -39.019531 Z M 37.09375 -26.59375 C 35.792969 -20.574219 30.171875 -14.015625 23.574219 -15.242188 C 15.464844 -16.867188 14.53125 -31.390625 14.53125 -31.390625 C 19.324219 -39.894531 23.507812 -48.617188 27.402344 -57.304688 L 30.5 -51.246094 C 34.390625 -43.535156 39.222656 -35.351562 37.09375 -26.59375 Z M 37.09375 -26.59375 "/></g></g></g><g fill="#e42c24" fill-opacity="1"><g transform="translate(400.32555, 416.60656)"><g><path d="M 80.023438 -46.300781 C 72.488281 -31.597656 66.324219 -22.335938 55.941406 -21.039062 C 55.617188 -23.632812 56.230469 -30.445312 58.902344 -37.222656 L 78.949219 -87.75 L 65.722656 -92.835938 L 60.132812 -78.960938 C 54.296875 -85.84375 47.230469 -88.476562 40.3125 -87.613281 C 24.738281 -85.667969 12.410156 -69.488281 6.640625 -57.054688 C -2.984375 -37.988281 -7.027344 2.339844 21.804688 -1.257812 C 30.457031 -2.335938 38.277344 -7.707031 43.398438 -13.617188 C 46.675781 -8.460938 51.6875 -5.867188 57.742188 -6.621094 C 64.375 -7.449219 70.96875 -10.910156 77.242188 -16.964844 C 81.929688 -21.648438 86.472656 -27.484375 92.816406 -39.992188 Z M 16.761719 -15.855469 C 8.328125 -22.417969 16.226562 -43.609375 19.472656 -50.457031 C 24.84375 -61.375 37.210938 -77.269531 46.253906 -72.835938 C 55.050781 -68.074219 46.324219 -44.144531 43.546875 -38.234375 C 39.582031 -30.125 25.773438 -11.710938 16.761719 -15.855469 Z M 16.761719 -15.855469 "/></g></g></g><g fill="#e42c24" fill-opacity="1"><g transform="translate(480.198226, 406.636204)"><g><path d="M 38.660156 -133.675781 C 35.703125 -126.863281 27.445312 -106.214844 18.503906 -84.011719 L 2.355469 -81.996094 L 4.085938 -68.15625 L 12.445312 -69.199219 C 7.542969 -56.875 3.105469 -45.484375 0.476562 -38.421875 C -2.230469 -31.933594 -4.898438 -25.160156 -5.476562 -18.058594 C -5.875 -7.171875 0.902344 0.179688 11.859375 -1.1875 C 25.988281 -2.949219 37.738281 -16.71875 46.96875 -34.269531 L 34.140625 -40.867188 C 30.679688 -31.0625 24.222656 -17.082031 8.941406 -15.171875 C 8.6875 -17.191406 9.265625 -21.949219 13.703125 -33.335938 C 17.054688 -41.664062 22.824219 -56.4375 28.882812 -71.253906 L 42.722656 -72.980469 L 40.996094 -86.820312 L 34.652344 -86.027344 L 51.921875 -128.304688 Z M 38.660156 -133.675781 "/></g></g></g><g fill="#e42c24" fill-opacity="1"><g transform="translate(513.935097, 402.424894)"><g><path d="M 80.023438 -46.300781 C 72.488281 -31.597656 66.324219 -22.335938 55.941406 -21.039062 C 55.617188 -23.632812 56.230469 -30.445312 58.902344 -37.222656 L 78.949219 -87.75 L 65.722656 -92.835938 L 60.132812 -78.960938 C 54.296875 -85.84375 47.230469 -88.476562 40.3125 -87.613281 C 24.738281 -85.667969 12.410156 -69.488281 6.640625 -57.054688 C -2.984375 -37.988281 -7.027344 2.339844 21.804688 -1.257812 C 30.457031 -2.335938 38.277344 -7.707031 43.398438 -13.617188 C 46.675781 -8.460938 51.6875 -5.867188 57.742188 -6.621094 C 64.375 -7.449219 70.96875 -10.910156 77.242188 -16.964844 C 81.929688 -21.648438 86.472656 -27.484375 92.816406 -39.992188 Z M 16.761719 -15.855469 C 8.328125 -22.417969 16.226562 -43.609375 19.472656 -50.457031 C 24.84375 -61.375 37.210938 -77.269531 46.253906 -72.835938 C 55.050781 -68.074219 46.324219 -44.144531 43.546875 -38.234375 C 39.582031 -30.125 25.773438 -11.710938 16.761719 -15.855469 Z M 16.761719 -15.855469 "/></g></g></g><g fill="#e42c24" fill-opacity="1"><g transform="translate(344.302459, 486.827083)"><g><path d="M 8.667969 -18.195312 C 9.484375 -17.90625 10.308594 -17.5625 11.136719 -17.609375 C 16.964844 -17.832031 21.570312 -20.246094 24.390625 -25.390625 C 26.628906 -29.351562 27.296875 -34.730469 23.183594 -39.128906 C 21.894531 -40.527344 20.464844 -41.242188 18.632812 -41.183594 C 17.027344 -41.09375 15.378906 -40.890625 13.789062 -40.691406 C 11.589844 -40.417969 9.359375 -39.972656 7.109375 -39.695312 C 5.1875 -39.453125 4.410156 -38.96875 3.972656 -37.128906 C 3.332031 -34.652344 2.753906 -32.125 2.347656 -29.566406 C 1.691406 -25.414062 1.203125 -21.28125 0.71875 -17.097656 C 0.171875 -12.511719 -0.253906 -7.886719 -0.300781 -3.308594 C -0.339844 -2.300781 -0.226562 -1.367188 0.695312 -0.699219 C 1.316406 -0.164062 2.105469 -0.09375 2.648438 -0.664062 C 2.945312 -0.980469 3.296875 -1.300781 3.417969 -1.652344 C 3.949219 -3.222656 4.664062 -4.648438 4.507812 -6.359375 C 4.460938 -7.191406 4.570312 -8.097656 4.6875 -8.945312 C 5.023438 -11.164062 5.417969 -13.386719 5.753906 -15.605469 C 5.949219 -16.742188 6.195312 -17.890625 6.472656 -19.261719 C 7.363281 -18.816406 7.972656 -18.390625 8.667969 -18.195312 Z M 8.285156 -35.15625 C 10.09375 -35.882812 11.925781 -35.941406 13.730469 -36.222656 C 14.664062 -36.339844 15.664062 -36.351562 16.597656 -36.46875 C 17.808594 -36.617188 18.960938 -36.761719 19.914062 -35.820312 C 21.050781 -34.734375 21.828125 -33.4375 21.804688 -31.816406 C 21.664062 -27.5625 18.792969 -22.855469 13.84375 -22.296875 C 12.027344 -22.125 10.242188 -21.683594 8.554688 -22.699219 C 8.128906 -22.980469 7.523438 -22.90625 6.722656 -23.085938 C 6.859375 -27.339844 7.605469 -31.222656 8.285156 -35.15625 Z M 8.285156 -35.15625 "/></g></g></g><g fill="#e42c24" fill-opacity="1"><g transform="translate(372.961019, 483.264064)"><g><path d="M 0.425781 -8.695312 C 1.136719 -6.554688 1.648438 -4.21875 3.652344 -2.90625 C 6.742188 -0.949219 10.21875 -0.769531 13.597656 -1.410156 C 16.101562 -1.890625 18.308594 -3.445312 19.8125 -5.695312 C 21.96875 -8.976562 23.417969 -12.558594 23.9375 -16.46875 C 24.289062 -18.578125 24.46875 -20.71875 24.703125 -22.867188 C 25.089844 -26.484375 25.367188 -30.085938 25.699219 -33.695312 C 25.871094 -35.445312 25.996094 -37.132812 26.113281 -38.878906 C 26.164062 -39.386719 26.148438 -39.941406 26.085938 -40.4375 C 25.890625 -41.582031 25.03125 -42.199219 23.742188 -42.261719 C 22.898438 -42.324219 22.128906 -41.785156 21.859375 -40.800781 C 21.625 -39.992188 21.453125 -39.136719 21.335938 -38.285156 C 20.648438 -33.066406 20.011719 -27.859375 19.320312 -22.644531 C 18.96875 -19.644531 18.5 -16.6875 18.148438 -13.6875 C 17.878906 -11.8125 16.960938 -10.25 15.921875 -8.726562 C 14.226562 -6.230469 11.824219 -5.375 8.914062 -5.902344 C 6.230469 -6.40625 4.988281 -7.867188 5.039062 -10.609375 C 5.164062 -12.742188 5.34375 -14.882812 5.578125 -17.03125 C 6.296875 -22.917969 7.128906 -28.765625 7.855469 -34.601562 C 7.984375 -35.789062 7.953125 -36.953125 7.910156 -38.175781 C 7.882812 -38.84375 7.542969 -39.355469 6.847656 -39.550781 C 6.039062 -39.785156 5.34375 -39.976562 4.769531 -39.234375 C 4.382812 -38.742188 4.007812 -38.191406 3.855469 -37.617188 C 3.460938 -35.839844 3.132812 -34.011719 2.792969 -32.242188 C 2.023438 -28.132812 1.195312 -24.015625 0.542969 -19.863281 C 0.0234375 -16.84375 -0.25 -13.6875 0.128906 -10.609375 C 0.210938 -9.953125 0.183594 -9.277344 0.425781 -8.695312 Z M 0.425781 -8.695312 "/></g></g></g><g fill="#e42c24" fill-opacity="1"><g transform="translate(403.156816, 479.509926)"><g><path d="M 3.664062 -9.097656 C 5.820312 -18.230469 6.441406 -27.566406 7.746094 -36.816406 C 7.816406 -37.160156 7.78125 -37.433594 7.792969 -37.769531 C 7.734375 -38.710938 7.261719 -39.378906 6.621094 -39.578125 C 5.9375 -39.714844 4.886719 -39.195312 4.472656 -38.472656 C 4.34375 -38.179688 4.210938 -37.882812 4.199219 -37.546875 C 3.605469 -34.6875 3.007812 -31.878906 2.578125 -29.039062 C 1.339844 -20.628906 0.152344 -12.230469 -0.980469 -3.835938 C -1.070312 -3.210938 -1.160156 -2.589844 -1.078125 -1.929688 C -0.972656 -1.105469 -0.101562 -0.378906 0.734375 -0.371094 C 1.179688 -0.371094 1.621094 -0.425781 2.003906 -0.472656 L 11.945312 -1.707031 C 13.097656 -1.851562 14.304688 -2 15.445312 -2.253906 C 16.046875 -2.328125 16.695312 -2.523438 17.269531 -2.816406 C 17.949219 -3.179688 18.5 -3.695312 18.445312 -4.578125 C 18.328125 -5.511719 17.792969 -6.226562 16.785156 -6.269531 C 15.878906 -6.378906 14.882812 -6.3125 13.964844 -6.085938 C 10.503906 -5.210938 7.003906 -5.109375 3.117188 -4.515625 C 3.332031 -6.378906 3.382812 -7.78125 3.664062 -9.097656 Z M 3.664062 -9.097656 "/></g></g></g><g fill="#e42c24" fill-opacity="1"><g transform="translate(426.54483, 476.602175)"><g><path d="M 16.128906 -11.539062 L 17.785156 -5.390625 C 17.957031 -4.910156 18.082031 -4.367188 18.308594 -3.894531 C 18.882812 -2.847656 19.707031 -2.503906 20.695312 -2.628906 C 21.953125 -2.839844 22.707031 -3.492188 22.769531 -4.78125 C 22.769531 -6.121094 22.59375 -7.546875 22.367188 -8.914062 C 21.992188 -11.042969 21.457031 -13.09375 21.027344 -15.214844 C 20.59375 -17.335938 20.117188 -19.398438 19.738281 -21.523438 C 18.898438 -25.601562 18.105469 -29.742188 17.261719 -33.820312 C 16.941406 -35.507812 16.511719 -37.183594 16.132812 -38.863281 C 15.667969 -40.8125 12.945312 -41.199219 11.667969 -39.8125 C 11.179688 -39.25 10.816406 -38.59375 10.457031 -37.878906 C 8.257812 -33.144531 5.886719 -28.445312 3.929688 -23.574219 C 1.550781 -17.589844 -0.480469 -11.484375 -2.679688 -5.410156 C -2.925781 -4.710938 -3.050781 -3.914062 -3.128906 -3.179688 C -3.175781 -2.226562 -2.464844 -1.421875 -1.476562 -1.097656 C -0.660156 -0.808594 0.0898438 -1.070312 0.507812 -1.734375 C 1.214844 -2.773438 1.972656 -3.871094 2.441406 -5.042969 C 4.570312 -10.773438 3.652344 -9.65625 9.566406 -10.949219 C 11.628906 -11.425781 13.753906 -11.804688 16.128906 -11.539062 Z M 6.621094 -15.375 C 8.03125 -20.625 9.957031 -25.328125 12.050781 -29.992188 C 12.347656 -29.863281 12.636719 -29.785156 12.648438 -29.675781 C 14.066406 -24.109375 14.832031 -19.296875 14.726562 -16.996094 C 12.171875 -16.457031 9.558594 -15.964844 6.621094 -15.375 Z M 6.621094 -15.375 "/></g></g></g><g fill="#e42c24" fill-opacity="1"><g transform="translate(454.654375, 473.107414)"><g><path d="M 0.425781 -8.695312 C 1.136719 -6.554688 1.648438 -4.21875 3.652344 -2.90625 C 6.742188 -0.949219 10.21875 -0.769531 13.597656 -1.410156 C 16.101562 -1.890625 18.308594 -3.445312 19.8125 -5.695312 C 21.96875 -8.976562 23.417969 -12.558594 23.9375 -16.46875 C 24.289062 -18.578125 24.46875 -20.71875 24.703125 -22.867188 C 25.089844 -26.484375 25.367188 -30.085938 25.699219 -33.695312 C 25.871094 -35.445312 25.996094 -37.132812 26.113281 -38.878906 C 26.164062 -39.386719 26.148438 -39.941406 26.085938 -40.4375 C 25.890625 -41.582031 25.03125 -42.199219 23.742188 -42.261719 C 22.898438 -42.324219 22.128906 -41.785156 21.859375 -40.800781 C 21.625 -39.992188 21.453125 -39.136719 21.335938 -38.285156 C 20.648438 -33.066406 20.011719 -27.859375 19.320312 -22.644531 C 18.96875 -19.644531 18.5 -16.6875 18.148438 -13.6875 C 17.878906 -11.8125 16.960938 -10.25 15.921875 -8.726562 C 14.226562 -6.230469 11.824219 -5.375 8.914062 -5.902344 C 6.230469 -6.40625 4.988281 -7.867188 5.039062 -10.609375 C 5.164062 -12.742188 5.34375 -14.882812 5.578125 -17.03125 C 6.296875 -22.917969 7.128906 -28.765625 7.855469 -34.601562 C 7.984375 -35.789062 7.953125 -36.953125 7.910156 -38.175781 C 7.882812 -38.84375 7.542969 -39.355469 6.847656 -39.550781 C 6.039062 -39.785156 5.34375 -39.976562 4.769531 -39.234375 C 4.382812 -38.742188 4.007812 -38.191406 3.855469 -37.617188 C 3.460938 -35.839844 3.132812 -34.011719 2.792969 -32.242188 C 2.023438 -28.132812 1.195312 -24.015625 0.542969 -19.863281 C 0.0234375 -16.84375 -0.25 -13.6875 0.128906 -10.609375 C 0.210938 -9.953125 0.183594 -9.277344 0.425781 -8.695312 Z M 0.425781 -8.695312 "/></g></g></g><g fill="#e42c24" fill-opacity="1"><g transform="translate(484.850172, 469.353275)"><g/></g></g><g fill="#e42c24" fill-opacity="1"><g transform="translate(496.708885, 467.878923)"><g><path d="M -1.832031 -8.472656 C -1.992188 -7.503906 -1.710938 -6.589844 -1.265625 -5.699219 C 0.613281 -1.804688 4.398438 0.402344 8.695312 -0.0234375 C 9.527344 -0.0703125 10.40625 -0.179688 11.230469 -0.28125 C 15.511719 -0.8125 18.367188 -3.398438 19.910156 -7.160156 C 21.839844 -11.804688 20.902344 -16.203125 17.742188 -20.105469 C 16.152344 -22.136719 13.996094 -23.320312 11.890625 -24.5625 C 10.683594 -25.304688 9.425781 -25.984375 8.371094 -26.859375 C 5.730469 -29.261719 6.089844 -33.992188 9.082031 -35.925781 C 11.609375 -37.578125 15.734375 -37.585938 17.285156 -34.546875 C 17.65625 -33.8125 18.394531 -33.234375 19.074219 -32.707031 C 19.574219 -32.265625 20.207031 -32.121094 20.886719 -32.484375 C 21.667969 -32.917969 22.308594 -33.609375 22.136719 -34.535156 C 21.789062 -36.445312 21.234375 -38.214844 19.503906 -39.5625 C 15.757812 -42.332031 11.921875 -42.242188 7.976562 -40.359375 C 1.292969 -37.128906 -1.148438 -26.734375 6.234375 -22.074219 C 7.679688 -21.195312 9.183594 -20.324219 10.6875 -19.449219 C 12.738281 -18.199219 14.445312 -16.574219 15.34375 -14.285156 C 16.78125 -10.785156 14.691406 -6.511719 11.082031 -5.503906 C 7.3125 -4.421875 4.683594 -5.378906 2.585938 -8.796875 C 2.03125 -9.675781 1.34375 -10.261719 0.136719 -10.554688 C -0.804688 -10.046875 -1.6875 -9.546875 -1.832031 -8.472656 Z M -1.832031 -8.472656 "/></g></g></g><g fill="#e42c24" fill-opacity="1"><g transform="translate(523.281193, 464.57528)"><g><path d="M 0.425781 -8.695312 C 1.136719 -6.554688 1.648438 -4.21875 3.652344 -2.90625 C 6.742188 -0.949219 10.21875 -0.769531 13.597656 -1.410156 C 16.101562 -1.890625 18.308594 -3.445312 19.8125 -5.695312 C 21.96875 -8.976562 23.417969 -12.558594 23.9375 -16.46875 C 24.289062 -18.578125 24.46875 -20.71875 24.703125 -22.867188 C 25.089844 -26.484375 25.367188 -30.085938 25.699219 -33.695312 C 25.871094 -35.445312 25.996094 -37.132812 26.113281 -38.878906 C 26.164062 -39.386719 26.148438 -39.941406 26.085938 -40.4375 C 25.890625 -41.582031 25.03125 -42.199219 23.742188 -42.261719 C 22.898438 -42.324219 22.128906 -41.785156 21.859375 -40.800781 C 21.625 -39.992188 21.453125 -39.136719 21.335938 -38.285156 C 20.648438 -33.066406 20.011719 -27.859375 19.320312 -22.644531 C 18.96875 -19.644531 18.5 -16.6875 18.148438 -13.6875 C 17.878906 -11.8125 16.960938 -10.25 15.921875 -8.726562 C 14.226562 -6.230469 11.824219 -5.375 8.914062 -5.902344 C 6.230469 -6.40625 4.988281 -7.867188 5.039062 -10.609375 C 5.164062 -12.742188 5.34375 -14.882812 5.578125 -17.03125 C 6.296875 -22.917969 7.128906 -28.765625 7.855469 -34.601562 C 7.984375 -35.789062 7.953125 -36.953125 7.910156 -38.175781 C 7.882812 -38.84375 7.542969 -39.355469 6.847656 -39.550781 C 6.039062 -39.785156 5.34375 -39.976562 4.769531 -39.234375 C 4.382812 -38.742188 4.007812 -38.191406 3.855469 -37.617188 C 3.460938 -35.839844 3.132812 -34.011719 2.792969 -32.242188 C 2.023438 -28.132812 1.195312 -24.015625 0.542969 -19.863281 C 0.0234375 -16.84375 -0.25 -13.6875 0.128906 -10.609375 C 0.210938 -9.953125 0.183594 -9.277344 0.425781 -8.695312 Z M 0.425781 -8.695312 "/></g></g></g><g fill="#e42c24" fill-opacity="1"><g transform="translate(553.47699, 460.821142)"><g><path d="M 3.664062 -9.097656 C 5.820312 -18.230469 6.441406 -27.566406 7.746094 -36.816406 C 7.816406 -37.160156 7.78125 -37.433594 7.792969 -37.769531 C 7.734375 -38.710938 7.261719 -39.378906 6.621094 -39.578125 C 5.9375 -39.714844 4.886719 -39.195312 4.472656 -38.472656 C 4.34375 -38.179688 4.210938 -37.882812 4.199219 -37.546875 C 3.605469 -34.6875 3.007812 -31.878906 2.578125 -29.039062 C 1.339844 -20.628906 0.152344 -12.230469 -0.980469 -3.835938 C -1.070312 -3.210938 -1.160156 -2.589844 -1.078125 -1.929688 C -0.972656 -1.105469 -0.101562 -0.378906 0.734375 -0.371094 C 1.179688 -0.371094 1.621094 -0.425781 2.003906 -0.472656 L 11.945312 -1.707031 C 13.097656 -1.851562 14.304688 -2 15.445312 -2.253906 C 16.046875 -2.328125 16.695312 -2.523438 17.269531 -2.816406 C 17.949219 -3.179688 18.5 -3.695312 18.445312 -4.578125 C 18.328125 -5.511719 17.792969 -6.226562 16.785156 -6.269531 C 15.878906 -6.378906 14.882812 -6.3125 13.964844 -6.085938 C 10.503906 -5.210938 7.003906 -5.109375 3.117188 -4.515625 C 3.332031 -6.378906 3.382812 -7.78125 3.664062 -9.097656 Z M 3.664062 -9.097656 "/></g></g></g><g fill="#e42c24" fill-opacity="1"><g transform="translate(576.865004, 457.913392)"><g><path d="M 9.417969 -31.894531 C 8.835938 -26.691406 8.148438 -21.476562 7.628906 -16.226562 C 7.285156 -12.726562 7.0625 -9.128906 6.824219 -5.644531 C 6.8125 -4.863281 6.84375 -4.140625 6.941406 -3.371094 C 7.089844 -2.609375 7.503906 -1.992188 8.359375 -1.820312 C 9.164062 -1.640625 9.960938 -1.964844 10.324219 -2.621094 C 10.777344 -3.457031 11.164062 -4.398438 11.21875 -5.296875 C 11.902344 -12.800781 12.476562 -20.285156 13.105469 -27.78125 C 13.355469 -30.265625 13.617188 -32.640625 13.820312 -35.0625 C 14.621094 -35.332031 15.253906 -35.632812 15.859375 -35.707031 C 17.65625 -36.042969 19.476562 -36.210938 21.265625 -36.601562 C 22.195312 -36.773438 23.15625 -37.117188 23.921875 -37.65625 C 24.945312 -38.398438 24.734375 -40.101562 23.5625 -40.566406 C 22.910156 -40.878906 22.113281 -41 21.394531 -40.96875 C 19.683594 -40.8125 17.980469 -40.597656 16.292969 -40.277344 C 13.121094 -39.773438 10.058594 -38.832031 6.773438 -38.816406 C 5.207031 -38.84375 3.601562 -38.308594 2.023438 -38 C 1.207031 -37.84375 0.640625 -37.441406 0.285156 -36.726562 C -0.347656 -35.53125 0.324219 -34.167969 1.65625 -34.21875 C 2.824219 -34.253906 4.023438 -34.457031 5.175781 -34.601562 C 6.558594 -34.71875 7.945312 -34.777344 9.816406 -34.957031 C 9.597656 -33.589844 9.535156 -32.746094 9.417969 -31.894531 Z M 9.417969 -31.894531 "/></g></g></g><g fill="#e42c24" fill-opacity="1"><g transform="translate(601.845153, 454.807697)"><g><path d="M 16.128906 -11.539062 L 17.785156 -5.390625 C 17.957031 -4.910156 18.082031 -4.367188 18.308594 -3.894531 C 18.882812 -2.847656 19.707031 -2.503906 20.695312 -2.628906 C 21.953125 -2.839844 22.707031 -3.492188 22.769531 -4.78125 C 22.769531 -6.121094 22.59375 -7.546875 22.367188 -8.914062 C 21.992188 -11.042969 21.457031 -13.09375 21.027344 -15.214844 C 20.59375 -17.335938 20.117188 -19.398438 19.738281 -21.523438 C 18.898438 -25.601562 18.105469 -29.742188 17.261719 -33.820312 C 16.941406 -35.507812 16.511719 -37.183594 16.132812 -38.863281 C 15.667969 -40.8125 12.945312 -41.199219 11.667969 -39.8125 C 11.179688 -39.25 10.816406 -38.59375 10.457031 -37.878906 C 8.257812 -33.144531 5.886719 -28.445312 3.929688 -23.574219 C 1.550781 -17.589844 -0.480469 -11.484375 -2.679688 -5.410156 C -2.925781 -4.710938 -3.050781 -3.914062 -3.128906 -3.179688 C -3.175781 -2.226562 -2.464844 -1.421875 -1.476562 -1.097656 C -0.660156 -0.808594 0.0898438 -1.070312 0.507812 -1.734375 C 1.214844 -2.773438 1.972656 -3.871094 2.441406 -5.042969 C 4.570312 -10.773438 3.652344 -9.65625 9.566406 -10.949219 C 11.628906 -11.425781 13.753906 -11.804688 16.128906 -11.539062 Z M 6.621094 -15.375 C 8.03125 -20.625 9.957031 -25.328125 12.050781 -29.992188 C 12.347656 -29.863281 12.636719 -29.785156 12.648438 -29.675781 C 14.066406 -24.109375 14.832031 -19.296875 14.726562 -16.996094 C 12.171875 -16.457031 9.558594 -15.964844 6.621094 -15.375 Z M 6.621094 -15.375 "/></g></g></g><g fill="#e42c24" fill-opacity="1"><g transform="translate(629.954698, 451.312935)"><g><path d="M 18.867188 -19.128906 C 18.613281 -19.824219 18.304688 -20.507812 18.050781 -21.203125 C 16.304688 -26.28125 14.078125 -31.191406 11.382812 -35.820312 C 10.738281 -36.964844 9.894531 -37.921875 9.042969 -38.929688 C 7.480469 -40.742188 4.144531 -39.769531 3.65625 -37.425781 C 3.484375 -36.566406 3.3125 -35.707031 3.195312 -34.855469 C 2.980469 -32.992188 2.835938 -31.019531 2.457031 -29.132812 C 1.445312 -24.269531 1.109375 -19.320312 0.660156 -14.414062 C 0.507812 -12.945312 0.191406 -11.453125 0.0390625 -9.984375 C -0.234375 -7.722656 -0.457031 -5.464844 -0.621094 -3.210938 C -0.710938 -2.589844 -0.574219 -1.9375 -0.335938 -1.351562 C 0.0273438 -0.226562 1.304688 0.171875 2.285156 -0.453125 C 2.800781 -0.792969 3.234375 -1.351562 3.5 -1.886719 C 3.8125 -2.535156 3.878906 -3.328125 3.957031 -4.0625 L 6.632812 -22.90625 C 7.03125 -25.519531 7.429688 -28.136719 7.804688 -30.96875 C 8.1875 -30.570312 8.488281 -30.386719 8.632812 -30.125 C 10.300781 -26.597656 11.957031 -23.121094 12.984375 -19.347656 C 14.03125 -15.40625 14.96875 -11.453125 16.015625 -7.511719 C 16.257812 -6.480469 16.558594 -5.402344 17.066406 -4.464844 C 18.328125 -2.390625 21.210938 -2.527344 22.269531 -4.777344 C 22.578125 -5.429688 22.761719 -6.175781 22.839844 -6.910156 C 24.066406 -15.871094 25.246094 -24.773438 26.417969 -33.730469 C 26.679688 -35.660156 26.886719 -37.582031 27.039062 -39.496094 C 27.054688 -40.277344 26.851562 -41.03125 26.175781 -41.507812 C 25.628906 -41.882812 24.085938 -41.75 23.433594 -41.164062 C 23.039062 -40.726562 22.675781 -40.066406 22.578125 -39.496094 C 22.070312 -36.871094 21.621094 -34.191406 21.222656 -31.578125 C 20.566406 -27.425781 19.96875 -23.28125 19.3125 -19.128906 C 19.195312 -19.171875 19.03125 -19.148438 18.867188 -19.128906 Z M 18.867188 -19.128906 "/></g></g></g></svg>