<svg xmlns="http://www.w3.org/2000/svg" xmlns:xlink="http://www.w3.org/1999/xlink" width="1024" zoomAndPan="magnify" viewBox="0 0 768 767.999994" height="1024" preserveAspectRatio="xMidYMid meet" version="1.0"><defs><g/></defs><g fill="#ffffff" fill-opacity="1"><g transform="translate(153.275251, 445.365176)"><g><path d="M 151.839844 -146.636719 C 144.59375 -127.28125 138.320312 -111.855469 132.511719 -97.367188 C 126.457031 -82.554688 119.855469 -65.039062 115.023438 -52.136719 C 108.640625 -35.230469 102.007812 -25.03125 88.457031 -25.683594 C 80.203125 -26.117188 83.449219 -37.652344 85.214844 -42.265625 L 118.066406 -135.683594 L 104.261719 -140.695312 C 96.726562 -121.308594 90.738281 -105.917969 84.933594 -91.429688 C 78.875 -76.617188 72.277344 -59.097656 67.15625 -46.160156 C 60.773438 -29.257812 53.417969 -17.796875 40.878906 -19.746094 C 32.515625 -21.042969 35.867188 -31.710938 37.636719 -36.324219 C 48.921875 -70.242188 58.40625 -92.804688 70.199219 -129.710938 L 58.773438 -136.777344 L 53.511719 -132.019531 C 48.535156 -127.296875 40.316406 -125.101562 35.054688 -125.03125 C 25.648438 -125.320312 15.628906 -125.824219 7.480469 -120.710938 C -2.25 -114.222656 -8.128906 -102.652344 -8.707031 -81.496094 L 5.421875 -80.917969 C 6 -97.390625 9.460938 -104.851562 15.445312 -108.523438 C 21.105469 -112.453125 29.503906 -110.867188 35.378906 -110.71875 C 39.164062 -110.898438 44.351562 -111.546875 49.6875 -113.386719 C 41.5 -89.8125 32.34375 -64.65625 23.867188 -41.050781 C 19.035156 -25.804688 20.90625 -6.125 40.046875 -5.292969 C 53.238281 -5.179688 63.367188 -10.839844 71.117188 -21.46875 C 76.019531 -12.710938 85.390625 -10.367188 94.328125 -11.480469 C 115.957031 -14.179688 124.355469 -36.023438 128.25 -47.050781 C 133.082031 -59.953125 140.007812 -77.21875 145.777344 -91.996094 L 165.355469 -141.589844 Z M 151.839844 -146.636719 "/></g></g></g><g fill="#ffffff" fill-opacity="1"><g transform="translate(295.117859, 427.65923)"><g><path d="M 41.757812 -101.851562 C 41 -107.90625 35.484375 -112.199219 29.71875 -111.476562 C 23.664062 -110.722656 19.375 -105.207031 20.128906 -99.152344 C 20.886719 -93.097656 26.363281 -89.097656 32.417969 -89.851562 C 38.1875 -90.570312 42.511719 -95.796875 41.757812 -101.851562 Z M 12.183594 -0.933594 C 26.3125 -2.699219 38.066406 -16.464844 47.257812 -34.304688 L 34.464844 -40.617188 C 26.894531 -26.199219 19.898438 -16.539062 9.230469 -15.207031 C 9.050781 -16.652344 9.085938 -21.046875 13.339844 -31.535156 C 17.34375 -41.699219 29.566406 -72.804688 32.523438 -79.613281 L 18.972656 -84.953125 C 16.304688 -78.175781 4.082031 -47.074219 -0.210938 -36.871094 C -4.175781 -26.421875 -7.855469 -13.660156 -1.910156 -5.910156 C 0.179688 -3.242188 4.398438 0.0351562 12.183594 -0.933594 Z M 12.183594 -0.933594 "/></g></g></g><g fill="#ffffff" fill-opacity="1"><g transform="translate(330.001875, 423.304724)"><g><path d="M 69.898438 -45.332031 C 63.984375 -34.050781 58.289062 -25.726562 51.148438 -21.90625 C 55.800781 -33.90625 48.449219 -48.21875 43.152344 -57.808594 C 40.089844 -63.574219 36.992188 -69.628906 35.335938 -75.867188 C 37.96875 -82.929688 36.3125 -91.507812 27.949219 -90.464844 C 21.027344 -89.601562 19.800781 -83.003906 20.414062 -78.101562 C 13.671875 -61.742188 2.710938 -41.628906 -5.292969 -23.644531 L 2.5625 -19.355469 C 6.058594 -7.785156 15.28125 0.433594 27.105469 -1.039062 C 32.871094 -1.761719 38.640625 -4.824219 43.109375 -8.894531 L 42.929688 -5.652344 C 42.929688 -5.652344 43.542969 -5.433594 43.832031 -5.472656 C 53.597656 -4.640625 62.175781 -10.984375 68.34375 -17.902344 C 74.328125 -23.921875 78.652344 -31.488281 82.691406 -39.019531 Z M 37.09375 -26.59375 C 35.796875 -20.574219 30.171875 -14.015625 23.574219 -15.242188 C 15.464844 -16.867188 14.53125 -31.390625 14.53125 -31.390625 C 19.328125 -39.898438 23.507812 -48.617188 27.402344 -57.304688 L 30.5 -51.25 C 34.394531 -43.535156 39.222656 -35.351562 37.09375 -26.59375 Z M 37.09375 -26.59375 "/></g></g></g><g fill="#ffffff" fill-opacity="1"><g transform="translate(400.058253, 414.559718)"><g><path d="M 80.023438 -46.300781 C 72.488281 -31.597656 66.324219 -22.335938 55.945312 -21.039062 C 55.621094 -23.636719 56.234375 -30.449219 58.902344 -37.222656 L 78.949219 -87.753906 L 65.722656 -92.835938 L 60.132812 -78.960938 C 54.296875 -85.847656 47.230469 -88.480469 40.3125 -87.617188 C 24.742188 -85.671875 12.410156 -69.492188 6.640625 -57.054688 C -2.984375 -37.992188 -7.027344 2.339844 21.808594 -1.257812 C 30.457031 -2.335938 38.28125 -7.707031 43.398438 -13.617188 C 46.679688 -8.460938 51.6875 -5.867188 57.742188 -6.621094 C 64.375 -7.449219 70.972656 -10.910156 77.246094 -16.964844 C 81.929688 -21.648438 86.472656 -27.488281 92.820312 -39.992188 Z M 16.761719 -15.855469 C 8.328125 -22.417969 16.226562 -43.609375 19.472656 -50.457031 C 24.84375 -61.378906 37.210938 -77.273438 46.257812 -72.835938 C 55.050781 -68.078125 46.324219 -44.144531 43.546875 -38.234375 C 39.582031 -30.125 25.773438 -11.710938 16.761719 -15.855469 Z M 16.761719 -15.855469 "/></g></g></g><g fill="#ffffff" fill-opacity="1"><g transform="translate(479.91682, 404.591124)"><g><path d="M 38.660156 -133.679688 C 35.703125 -126.867188 27.449219 -106.214844 18.503906 -84.015625 L 2.355469 -82 L 4.085938 -68.15625 L 12.445312 -69.203125 C 7.542969 -56.875 3.109375 -45.488281 0.476562 -38.421875 C -2.230469 -31.933594 -4.898438 -25.160156 -5.476562 -18.058594 C -5.875 -7.171875 0.902344 0.179688 11.859375 -1.1875 C 25.988281 -2.953125 37.742188 -16.71875 46.972656 -34.269531 L 34.140625 -40.867188 C 30.679688 -31.066406 24.222656 -17.082031 8.941406 -15.171875 C 8.691406 -17.191406 9.265625 -21.949219 13.703125 -33.339844 C 17.054688 -41.664062 22.824219 -56.441406 28.882812 -71.253906 L 42.722656 -72.980469 L 40.996094 -86.824219 L 34.652344 -86.03125 L 51.925781 -128.308594 Z M 38.660156 -133.679688 "/></g></g></g><g fill="#ffffff" fill-opacity="1"><g transform="translate(513.647677, 400.380564)"><g><path d="M 80.023438 -46.300781 C 72.488281 -31.597656 66.324219 -22.335938 55.945312 -21.039062 C 55.621094 -23.636719 56.234375 -30.449219 58.902344 -37.222656 L 78.949219 -87.753906 L 65.722656 -92.835938 L 60.132812 -78.960938 C 54.296875 -85.847656 47.230469 -88.480469 40.3125 -87.617188 C 24.742188 -85.671875 12.410156 -69.492188 6.640625 -57.054688 C -2.984375 -37.992188 -7.027344 2.339844 21.808594 -1.257812 C 30.457031 -2.335938 38.28125 -7.707031 43.398438 -13.617188 C 46.679688 -8.460938 51.6875 -5.867188 57.742188 -6.621094 C 64.375 -7.449219 70.972656 -10.910156 77.246094 -16.964844 C 81.929688 -21.648438 86.472656 -27.488281 92.820312 -39.992188 Z M 16.761719 -15.855469 C 8.328125 -22.417969 16.226562 -43.609375 19.472656 -50.457031 C 24.84375 -61.378906 37.210938 -77.273438 46.257812 -72.835938 C 55.050781 -68.078125 46.324219 -44.144531 43.546875 -38.234375 C 39.582031 -30.125 25.773438 -11.710938 16.761719 -15.855469 Z M 16.761719 -15.855469 "/></g></g></g><g fill="#ffffff" fill-opacity="1"><g transform="translate(344.23577, 486.214601)"><g><path d="M 8.664062 -18.191406 C 9.480469 -17.902344 10.304688 -17.558594 11.136719 -17.609375 C 16.960938 -17.832031 21.566406 -20.242188 24.382812 -25.386719 C 26.625 -29.347656 27.292969 -34.726562 23.179688 -39.121094 C 21.890625 -40.519531 20.464844 -41.234375 18.628906 -41.175781 C 17.023438 -41.085938 15.378906 -40.882812 13.785156 -40.683594 C 11.589844 -40.410156 9.359375 -39.964844 7.109375 -39.6875 C 5.1875 -39.449219 4.410156 -38.960938 3.96875 -37.121094 C 3.332031 -34.644531 2.753906 -32.121094 2.347656 -29.5625 C 1.691406 -25.410156 1.203125 -21.277344 0.71875 -17.09375 C 0.171875 -12.507812 -0.253906 -7.886719 -0.300781 -3.308594 C -0.339844 -2.300781 -0.226562 -1.367188 0.695312 -0.699219 C 1.316406 -0.164062 2.105469 -0.09375 2.648438 -0.664062 C 2.945312 -0.980469 3.292969 -1.300781 3.417969 -1.652344 C 3.949219 -3.222656 4.664062 -4.648438 4.503906 -6.359375 C 4.457031 -7.1875 4.570312 -8.09375 4.6875 -8.945312 C 5.023438 -11.160156 5.417969 -13.382812 5.753906 -15.601562 C 5.945312 -16.738281 6.195312 -17.886719 6.46875 -19.257812 C 7.363281 -18.8125 7.972656 -18.386719 8.664062 -18.191406 Z M 8.285156 -35.148438 C 10.089844 -35.875 11.921875 -35.9375 13.726562 -36.214844 C 14.660156 -36.332031 15.664062 -36.34375 16.597656 -36.460938 C 17.804688 -36.613281 18.957031 -36.753906 19.910156 -35.8125 C 21.050781 -34.730469 21.824219 -33.433594 21.800781 -31.8125 C 21.660156 -27.558594 18.789062 -22.851562 13.84375 -22.292969 C 12.023438 -22.121094 10.238281 -21.679688 8.550781 -22.695312 C 8.125 -22.976562 7.523438 -22.902344 6.71875 -23.078125 C 6.859375 -27.335938 7.601562 -31.21875 8.285156 -35.148438 Z M 8.285156 -35.148438 "/></g></g></g><g fill="#ffffff" fill-opacity="1"><g transform="translate(372.891329, 482.651955)"><g><path d="M 0.425781 -8.695312 C 1.136719 -6.550781 1.648438 -4.21875 3.652344 -2.90625 C 6.738281 -0.949219 10.21875 -0.769531 13.59375 -1.410156 C 16.101562 -1.890625 18.304688 -3.445312 19.808594 -5.695312 C 21.964844 -8.976562 23.414062 -12.554688 23.933594 -16.46875 C 24.285156 -18.574219 24.464844 -20.714844 24.699219 -22.863281 C 25.085938 -26.476562 25.363281 -30.082031 25.695312 -33.691406 C 25.867188 -35.441406 25.992188 -37.128906 26.109375 -38.871094 C 26.15625 -39.378906 26.144531 -39.933594 26.082031 -40.429688 C 25.882812 -41.574219 25.027344 -42.191406 23.738281 -42.253906 C 22.894531 -42.316406 22.125 -41.777344 21.855469 -40.796875 C 21.621094 -39.984375 21.449219 -39.128906 21.332031 -38.277344 C 20.644531 -33.0625 20.007812 -27.855469 19.320312 -22.640625 C 18.964844 -19.640625 18.496094 -16.683594 18.144531 -13.683594 C 17.878906 -11.8125 16.957031 -10.246094 15.917969 -8.726562 C 14.222656 -6.226562 11.820312 -5.371094 8.910156 -5.902344 C 6.226562 -6.40625 4.988281 -7.867188 5.035156 -10.605469 C 5.160156 -12.738281 5.34375 -14.878906 5.578125 -17.027344 C 6.292969 -22.914062 7.128906 -28.761719 7.851562 -34.59375 C 7.984375 -35.78125 7.949219 -36.949219 7.910156 -38.167969 C 7.882812 -38.835938 7.539062 -39.351562 6.847656 -39.542969 C 6.039062 -39.777344 5.34375 -39.96875 4.769531 -39.226562 C 4.382812 -38.734375 4.003906 -38.1875 3.855469 -37.609375 C 3.460938 -35.832031 3.132812 -34.007812 2.792969 -32.238281 C 2.023438 -28.125 1.195312 -24.011719 0.542969 -19.859375 C 0.0234375 -16.839844 -0.25 -13.683594 0.128906 -10.609375 C 0.210938 -9.949219 0.183594 -9.277344 0.425781 -8.695312 Z M 0.425781 -8.695312 "/></g></g></g><g fill="#ffffff" fill-opacity="1"><g transform="translate(403.083977, 478.898208)"><g><path d="M 3.664062 -9.097656 C 5.816406 -18.230469 6.441406 -27.5625 7.746094 -36.8125 C 7.8125 -37.152344 7.777344 -37.429688 7.792969 -37.765625 C 7.730469 -38.703125 7.257812 -39.371094 6.621094 -39.570312 C 5.933594 -39.707031 4.882812 -39.1875 4.472656 -38.464844 C 4.339844 -38.171875 4.210938 -37.875 4.195312 -37.539062 C 3.605469 -34.679688 3.007812 -31.871094 2.578125 -29.03125 C 1.339844 -20.625 0.152344 -12.226562 -0.980469 -3.835938 C -1.070312 -3.210938 -1.15625 -2.585938 -1.074219 -1.929688 C -0.972656 -1.105469 -0.101562 -0.378906 0.734375 -0.371094 C 1.179688 -0.371094 1.621094 -0.425781 2.003906 -0.472656 L 11.941406 -1.707031 C 13.09375 -1.851562 14.300781 -2 15.441406 -2.253906 C 16.046875 -2.328125 16.691406 -2.519531 17.265625 -2.816406 C 17.945312 -3.179688 18.496094 -3.691406 18.441406 -4.578125 C 18.324219 -5.511719 17.789062 -6.226562 16.78125 -6.269531 C 15.875 -6.378906 14.882812 -6.308594 13.960938 -6.085938 C 10.503906 -5.207031 7.003906 -5.109375 3.117188 -4.511719 C 3.332031 -6.378906 3.382812 -7.78125 3.664062 -9.097656 Z M 3.664062 -9.097656 "/></g></g></g><g fill="#ffffff" fill-opacity="1"><g transform="translate(426.469549, 475.990762)"><g><path d="M 16.128906 -11.539062 L 17.785156 -5.390625 C 17.953125 -4.910156 18.078125 -4.367188 18.304688 -3.890625 C 18.878906 -2.847656 19.703125 -2.503906 20.691406 -2.628906 C 21.945312 -2.839844 22.703125 -3.492188 22.765625 -4.78125 C 22.765625 -6.121094 22.589844 -7.546875 22.363281 -8.914062 C 21.988281 -11.039062 21.453125 -13.09375 21.023438 -15.214844 C 20.589844 -17.335938 20.113281 -19.394531 19.734375 -21.519531 C 18.894531 -25.597656 18.101562 -29.734375 17.261719 -33.8125 C 16.9375 -35.5 16.507812 -37.175781 16.132812 -38.855469 C 15.667969 -40.804688 12.941406 -41.191406 11.664062 -39.808594 C 11.175781 -39.246094 10.8125 -38.585938 10.457031 -37.871094 C 8.257812 -33.140625 5.886719 -28.441406 3.925781 -23.570312 C 1.546875 -17.585938 -0.480469 -11.480469 -2.679688 -5.410156 C -2.925781 -4.710938 -3.050781 -3.914062 -3.128906 -3.179688 C -3.175781 -2.226562 -2.460938 -1.421875 -1.476562 -1.097656 C -0.660156 -0.808594 0.0898438 -1.070312 0.507812 -1.734375 C 1.214844 -2.773438 1.972656 -3.867188 2.4375 -5.042969 C 4.570312 -10.769531 3.648438 -9.652344 9.566406 -10.945312 C 11.625 -11.425781 13.753906 -11.800781 16.128906 -11.539062 Z M 6.617188 -15.375 C 8.027344 -20.621094 9.953125 -25.320312 12.050781 -29.988281 C 12.34375 -29.855469 12.632812 -29.78125 12.644531 -29.671875 C 14.0625 -24.105469 14.828125 -19.292969 14.722656 -16.996094 C 12.171875 -16.453125 9.554688 -15.960938 6.617188 -15.375 Z M 6.617188 -15.375 "/></g></g></g><g fill="#ffffff" fill-opacity="1"><g transform="translate(454.576149, 472.496366)"><g><path d="M 0.425781 -8.695312 C 1.136719 -6.550781 1.648438 -4.21875 3.652344 -2.90625 C 6.738281 -0.949219 10.21875 -0.769531 13.59375 -1.410156 C 16.101562 -1.890625 18.304688 -3.445312 19.808594 -5.695312 C 21.964844 -8.976562 23.414062 -12.554688 23.933594 -16.46875 C 24.285156 -18.574219 24.464844 -20.714844 24.699219 -22.863281 C 25.085938 -26.476562 25.363281 -30.082031 25.695312 -33.691406 C 25.867188 -35.441406 25.992188 -37.128906 26.109375 -38.871094 C 26.15625 -39.378906 26.144531 -39.933594 26.082031 -40.429688 C 25.882812 -41.574219 25.027344 -42.191406 23.738281 -42.253906 C 22.894531 -42.316406 22.125 -41.777344 21.855469 -40.796875 C 21.621094 -39.984375 21.449219 -39.128906 21.332031 -38.277344 C 20.644531 -33.0625 20.007812 -27.855469 19.320312 -22.640625 C 18.964844 -19.640625 18.496094 -16.683594 18.144531 -13.683594 C 17.878906 -11.8125 16.957031 -10.246094 15.917969 -8.726562 C 14.222656 -6.226562 11.820312 -5.371094 8.910156 -5.902344 C 6.226562 -6.40625 4.988281 -7.867188 5.035156 -10.605469 C 5.160156 -12.738281 5.34375 -14.878906 5.578125 -17.027344 C 6.292969 -22.914062 7.128906 -28.761719 7.851562 -34.59375 C 7.984375 -35.78125 7.949219 -36.949219 7.910156 -38.167969 C 7.882812 -38.835938 7.539062 -39.351562 6.847656 -39.542969 C 6.039062 -39.777344 5.34375 -39.96875 4.769531 -39.226562 C 4.382812 -38.734375 4.003906 -38.1875 3.855469 -37.609375 C 3.460938 -35.832031 3.132812 -34.007812 2.792969 -32.238281 C 2.023438 -28.125 1.195312 -24.011719 0.542969 -19.859375 C 0.0234375 -16.839844 -0.25 -13.683594 0.128906 -10.609375 C 0.210938 -9.949219 0.183594 -9.277344 0.425781 -8.695312 Z M 0.425781 -8.695312 "/></g></g></g><g fill="#ffffff" fill-opacity="1"><g transform="translate(484.768798, 468.742619)"><g/></g></g><g fill="#ffffff" fill-opacity="1"><g transform="translate(496.626263, 467.268422)"><g><path d="M -1.832031 -8.46875 C -1.992188 -7.5 -1.710938 -6.589844 -1.265625 -5.695312 C 0.613281 -1.804688 4.398438 0.402344 8.695312 -0.0234375 C 9.523438 -0.0703125 10.402344 -0.179688 11.226562 -0.28125 C 15.507812 -0.8125 18.367188 -3.398438 19.90625 -7.15625 C 21.835938 -11.800781 20.898438 -16.203125 17.738281 -20.101562 C 16.148438 -22.132812 13.992188 -23.316406 11.886719 -24.558594 C 10.679688 -25.300781 9.425781 -25.980469 8.367188 -26.851562 C 5.730469 -29.257812 6.089844 -33.984375 9.082031 -35.917969 C 11.609375 -37.570312 15.734375 -37.582031 17.28125 -34.539062 C 17.652344 -33.804688 18.390625 -33.226562 19.070312 -32.699219 C 19.570312 -32.261719 20.203125 -32.117188 20.882812 -32.480469 C 21.664062 -32.910156 22.304688 -33.601562 22.132812 -34.53125 C 21.785156 -36.4375 21.230469 -38.207031 19.5 -39.554688 C 15.757812 -42.324219 11.921875 -42.234375 7.972656 -40.351562 C 1.292969 -37.125 -1.148438 -26.730469 6.230469 -22.070312 C 7.679688 -21.191406 9.179688 -20.320312 10.683594 -19.449219 C 12.734375 -18.195312 14.441406 -16.570312 15.339844 -14.285156 C 16.777344 -10.78125 14.691406 -6.507812 11.078125 -5.503906 C 7.3125 -4.421875 4.683594 -5.375 2.585938 -8.796875 C 2.03125 -9.675781 1.34375 -10.257812 0.136719 -10.554688 C -0.804688 -10.046875 -1.6875 -9.546875 -1.832031 -8.46875 Z M -1.832031 -8.46875 "/></g></g></g><g fill="#ffffff" fill-opacity="1"><g transform="translate(523.195773, 463.965127)"><g><path d="M 0.425781 -8.695312 C 1.136719 -6.550781 1.648438 -4.21875 3.652344 -2.90625 C 6.738281 -0.949219 10.21875 -0.769531 13.59375 -1.410156 C 16.101562 -1.890625 18.304688 -3.445312 19.808594 -5.695312 C 21.964844 -8.976562 23.414062 -12.554688 23.933594 -16.46875 C 24.285156 -18.574219 24.464844 -20.714844 24.699219 -22.863281 C 25.085938 -26.476562 25.363281 -30.082031 25.695312 -33.691406 C 25.867188 -35.441406 25.992188 -37.128906 26.109375 -38.871094 C 26.15625 -39.378906 26.144531 -39.933594 26.082031 -40.429688 C 25.882812 -41.574219 25.027344 -42.191406 23.738281 -42.253906 C 22.894531 -42.316406 22.125 -41.777344 21.855469 -40.796875 C 21.621094 -39.984375 21.449219 -39.128906 21.332031 -38.277344 C 20.644531 -33.0625 20.007812 -27.855469 19.320312 -22.640625 C 18.964844 -19.640625 18.496094 -16.683594 18.144531 -13.683594 C 17.878906 -11.8125 16.957031 -10.246094 15.917969 -8.726562 C 14.222656 -6.226562 11.820312 -5.371094 8.910156 -5.902344 C 6.226562 -6.40625 4.988281 -7.867188 5.035156 -10.605469 C 5.160156 -12.738281 5.34375 -14.878906 5.578125 -17.027344 C 6.292969 -22.914062 7.128906 -28.761719 7.851562 -34.59375 C 7.984375 -35.78125 7.949219 -36.949219 7.910156 -38.167969 C 7.882812 -38.835938 7.539062 -39.351562 6.847656 -39.542969 C 6.039062 -39.777344 5.34375 -39.96875 4.769531 -39.226562 C 4.382812 -38.734375 4.003906 -38.1875 3.855469 -37.609375 C 3.460938 -35.832031 3.132812 -34.007812 2.792969 -32.238281 C 2.023438 -28.125 1.195312 -24.011719 0.542969 -19.859375 C 0.0234375 -16.839844 -0.25 -13.683594 0.128906 -10.609375 C 0.210938 -9.949219 0.183594 -9.277344 0.425781 -8.695312 Z M 0.425781 -8.695312 "/></g></g></g><g fill="#ffffff" fill-opacity="1"><g transform="translate(553.388421, 460.21138)"><g><path d="M 3.664062 -9.097656 C 5.816406 -18.230469 6.441406 -27.5625 7.746094 -36.8125 C 7.8125 -37.152344 7.777344 -37.429688 7.792969 -37.765625 C 7.730469 -38.703125 7.257812 -39.371094 6.621094 -39.570312 C 5.933594 -39.707031 4.882812 -39.1875 4.472656 -38.464844 C 4.339844 -38.171875 4.210938 -37.875 4.195312 -37.539062 C 3.605469 -34.679688 3.007812 -31.871094 2.578125 -29.03125 C 1.339844 -20.625 0.152344 -12.226562 -0.980469 -3.835938 C -1.070312 -3.210938 -1.15625 -2.585938 -1.074219 -1.929688 C -0.972656 -1.105469 -0.101562 -0.378906 0.734375 -0.371094 C 1.179688 -0.371094 1.621094 -0.425781 2.003906 -0.472656 L 11.941406 -1.707031 C 13.09375 -1.851562 14.300781 -2 15.441406 -2.253906 C 16.046875 -2.328125 16.691406 -2.519531 17.265625 -2.816406 C 17.945312 -3.179688 18.496094 -3.691406 18.441406 -4.578125 C 18.324219 -5.511719 17.789062 -6.226562 16.78125 -6.269531 C 15.875 -6.378906 14.882812 -6.308594 13.960938 -6.085938 C 10.503906 -5.207031 7.003906 -5.109375 3.117188 -4.511719 C 3.332031 -6.378906 3.382812 -7.78125 3.664062 -9.097656 Z M 3.664062 -9.097656 "/></g></g></g><g fill="#ffffff" fill-opacity="1"><g transform="translate(576.773993, 457.303934)"><g><path d="M 9.414062 -31.890625 C 8.835938 -26.6875 8.144531 -21.472656 7.628906 -16.222656 C 7.28125 -12.722656 7.058594 -9.128906 6.824219 -5.644531 C 6.808594 -4.859375 6.84375 -4.140625 6.941406 -3.371094 C 7.089844 -2.609375 7.5 -1.992188 8.359375 -1.820312 C 9.164062 -1.640625 9.957031 -1.960938 10.324219 -2.621094 C 10.777344 -3.457031 11.160156 -4.398438 11.214844 -5.296875 C 11.902344 -12.796875 12.476562 -20.285156 13.105469 -27.777344 C 13.351562 -30.261719 13.617188 -32.632812 13.816406 -35.058594 C 14.621094 -35.324219 15.25 -35.625 15.855469 -35.699219 C 17.652344 -36.035156 19.472656 -36.207031 21.261719 -36.597656 C 22.1875 -36.765625 23.148438 -37.109375 23.917969 -37.652344 C 24.941406 -38.390625 24.730469 -40.09375 23.558594 -40.5625 C 22.90625 -40.871094 22.109375 -40.992188 21.390625 -40.960938 C 19.679688 -40.804688 17.976562 -40.59375 16.289062 -40.269531 C 13.121094 -39.765625 10.058594 -38.828125 6.769531 -38.808594 C 5.207031 -38.835938 3.601562 -38.300781 2.023438 -37.996094 C 1.207031 -37.835938 0.640625 -37.433594 0.285156 -36.71875 C -0.347656 -35.527344 0.324219 -34.160156 1.65625 -34.214844 C 2.824219 -34.246094 4.023438 -34.453125 5.175781 -34.597656 C 6.554688 -34.710938 7.941406 -34.773438 9.816406 -34.949219 C 9.59375 -33.585938 9.53125 -32.738281 9.414062 -31.890625 Z M 9.414062 -31.890625 "/></g></g></g><g fill="#ffffff" fill-opacity="1"><g transform="translate(601.751547, 454.198561)"><g><path d="M 16.128906 -11.539062 L 17.785156 -5.390625 C 17.953125 -4.910156 18.078125 -4.367188 18.304688 -3.890625 C 18.878906 -2.847656 19.703125 -2.503906 20.691406 -2.628906 C 21.945312 -2.839844 22.703125 -3.492188 22.765625 -4.78125 C 22.765625 -6.121094 22.589844 -7.546875 22.363281 -8.914062 C 21.988281 -11.039062 21.453125 -13.09375 21.023438 -15.214844 C 20.589844 -17.335938 20.113281 -19.394531 19.734375 -21.519531 C 18.894531 -25.597656 18.101562 -29.734375 17.261719 -33.8125 C 16.9375 -35.5 16.507812 -37.175781 16.132812 -38.855469 C 15.667969 -40.804688 12.941406 -41.191406 11.664062 -39.808594 C 11.175781 -39.246094 10.8125 -38.585938 10.457031 -37.871094 C 8.257812 -33.140625 5.886719 -28.441406 3.925781 -23.570312 C 1.546875 -17.585938 -0.480469 -11.480469 -2.679688 -5.410156 C -2.925781 -4.710938 -3.050781 -3.914062 -3.128906 -3.179688 C -3.175781 -2.226562 -2.460938 -1.421875 -1.476562 -1.097656 C -0.660156 -0.808594 0.0898438 -1.070312 0.507812 -1.734375 C 1.214844 -2.773438 1.972656 -3.867188 2.4375 -5.042969 C 4.570312 -10.769531 3.648438 -9.652344 9.566406 -10.945312 C 11.625 -11.425781 13.753906 -11.800781 16.128906 -11.539062 Z M 6.617188 -15.375 C 8.027344 -20.621094 9.953125 -25.320312 12.050781 -29.988281 C 12.34375 -29.855469 12.632812 -29.78125 12.644531 -29.671875 C 14.0625 -24.105469 14.828125 -19.292969 14.722656 -16.996094 C 12.171875 -16.453125 9.554688 -15.960938 6.617188 -15.375 Z M 6.617188 -15.375 "/></g></g></g><g fill="#ffffff" fill-opacity="1"><g transform="translate(629.858148, 450.704165)"><g><path d="M 18.863281 -19.125 C 18.609375 -19.820312 18.300781 -20.507812 18.046875 -21.199219 C 16.300781 -26.277344 14.074219 -31.1875 11.378906 -35.8125 C 10.738281 -36.960938 9.894531 -37.914062 9.042969 -38.921875 C 7.480469 -40.734375 4.144531 -39.765625 3.65625 -37.417969 C 3.484375 -36.558594 3.3125 -35.703125 3.195312 -34.851562 C 2.980469 -32.984375 2.835938 -31.015625 2.457031 -29.128906 C 1.445312 -24.265625 1.109375 -19.316406 0.660156 -14.410156 C 0.507812 -12.941406 0.191406 -11.453125 0.0390625 -9.984375 C -0.234375 -7.71875 -0.457031 -5.460938 -0.621094 -3.210938 C -0.710938 -2.585938 -0.574219 -1.933594 -0.335938 -1.351562 C 0.0273438 -0.226562 1.304688 0.171875 2.285156 -0.453125 C 2.800781 -0.792969 3.234375 -1.351562 3.5 -1.886719 C 3.808594 -2.535156 3.878906 -3.324219 3.957031 -4.058594 L 6.628906 -22.902344 C 7.03125 -25.515625 7.429688 -28.128906 7.800781 -30.964844 C 8.1875 -30.566406 8.488281 -30.378906 8.632812 -30.121094 C 10.296875 -26.589844 11.957031 -23.117188 12.980469 -19.34375 C 14.03125 -15.402344 14.96875 -11.449219 16.015625 -7.511719 C 16.253906 -6.480469 16.554688 -5.402344 17.0625 -4.460938 C 18.324219 -2.390625 21.207031 -2.523438 22.265625 -4.773438 C 22.574219 -5.425781 22.757812 -6.175781 22.835938 -6.910156 C 24.0625 -15.871094 25.242188 -24.769531 26.414062 -33.722656 C 26.675781 -35.652344 26.882812 -37.574219 27.035156 -39.488281 C 27.050781 -40.269531 26.84375 -41.023438 26.171875 -41.5 C 25.625 -41.875 24.078125 -41.742188 23.425781 -41.15625 C 23.035156 -40.71875 22.671875 -40.058594 22.574219 -39.492188 C 22.066406 -36.863281 21.617188 -34.1875 21.21875 -31.574219 C 20.5625 -27.421875 19.964844 -23.277344 19.308594 -19.125 C 19.191406 -19.167969 19.027344 -19.148438 18.863281 -19.125 Z M 18.863281 -19.125 "/></g></g></g></svg>