<svg width="28" height="28" viewBox="0 0 28 28" fill="none"
 
    xmlns="http://www.w3.org/2000/svg">
  <path d="M5.26057 23.5C5.25763 23.4999 5.25272 23.4996 5.24605 23.4991C5.22479 23.4976 5.18788 23.4941 5.14096 23.4863C5.04239 23.4698 4.92625 23.4388 4.82221 23.3868C4.72209 23.3368 4.65239 23.2774 4.60549 23.207C4.56276 23.1429 4.5 23.0125 4.5 22.75C4.5 22.1318 4.83804 20.6387 6.17586 19.3009C7.48436 17.9923 9.83589 16.75 14 16.75C18.1641 16.75 20.5156 17.9923 21.8241 19.3009C23.162 20.6387 23.5 22.1318 23.5 22.75C23.5 23.0125 23.4372 23.1429 23.3945 23.207C23.3476 23.2774 23.2779 23.3368 23.1778 23.3868C23.0738 23.4388 22.9576 23.4698 22.859 23.4863C22.8121 23.4941 22.7752 23.4976 22.7539 23.4991C22.7473 23.4996 22.7424 23.4999 22.7394 23.5H5.26057ZM17.0052 11.7552C16.2082 12.5522 15.1272 13 14 13C12.8728 13 11.7918 12.5522 10.9948 11.7552C10.1978 10.9582 9.75 9.87717 9.75 8.75C9.75 7.62283 10.1978 6.54183 10.9948 5.7448C11.7918 4.94777 12.8728 4.5 14 4.5C15.1272 4.5 16.2082 4.94777 17.0052 5.7448C17.8022 6.54183 18.25 7.62283 18.25 8.75C18.25 9.87717 17.8022 10.9582 17.0052 11.7552Z" stroke="#676767" stroke-width="2"/>
</svg>
