<svg width="28" height="28" viewBox="0 0 28 28" fill="none"
  xmlns="http://www.w3.org/2000/svg">
  <path d="M5.25 24.5C5.25 24.5 3.5 24.5 3.5 22.75C3.5 21 5.25 15.75 14 15.75C22.75 15.75 24.5 21 24.5 22.75C24.5 24.5 22.75 24.5 22.75 24.5H5.25ZM14 14C15.3924 14 16.7277 13.4469 17.7123 12.4623C18.6969 11.4777 19.25 10.1424 19.25 8.75C19.25 7.35761 18.6969 6.02226 17.7123 5.03769C16.7277 4.05312 15.3924 3.5 14 3.5C12.6076 3.5 11.2723 4.05312 10.2877 5.03769C9.30312 6.02226 8.75 7.35761 8.75 8.75C8.75 10.1424 9.30312 11.4777 10.2877 12.4623C11.2723 13.4469 12.6076 14 14 14Z" fill="#E42C24"/>
</svg>
