<svg width="24" height="24" viewBox="0 0 24 24" fill="none"
  xmlns="http://www.w3.org/2000/svg">
  <path d="M7.19998 3.6C6.2452 3.6 5.32952 3.97928 4.65439 4.65441C3.97926 5.32955 3.59998 6.24522 3.59998 7.2V16.8C3.59998 17.7548 3.97926 18.6705 4.65439 19.3456C5.32952 20.0207 6.2452 20.4 7.19998 20.4H16.8C17.7548 20.4 18.6704 20.0207 19.3456 19.3456C20.0207 18.6705 20.4 17.7548 20.4 16.8V7.2C20.4 6.24522 20.0207 5.32955 19.3456 4.65441C18.6704 3.97928 17.7548 3.6 16.8 3.6H7.19998ZM16.6248 9.4248L10.6248 15.4248C10.569 15.4807 10.5028 15.525 10.4299 15.5553C10.357 15.5855 10.2789 15.6011 10.2 15.6011C10.1211 15.6011 10.0429 15.5855 9.97002 15.5553C9.89712 15.525 9.83091 15.4807 9.77518 15.4248L7.37518 13.0248C7.26251 12.9121 7.19922 12.7593 7.19922 12.6C7.19922 12.4407 7.26251 12.2879 7.37518 12.1752C7.48784 12.0625 7.64065 11.9992 7.79998 11.9992C7.95931 11.9992 8.11211 12.0625 8.22478 12.1752L10.2 14.1516L15.7752 8.5752C15.831 8.51941 15.8972 8.47516 15.9701 8.44497C16.043 8.41478 16.1211 8.39924 16.2 8.39924C16.2789 8.39924 16.357 8.41478 16.4299 8.44497C16.5028 8.47516 16.569 8.51941 16.6248 8.5752C16.6806 8.63098 16.7248 8.69721 16.755 8.7701C16.7852 8.84299 16.8007 8.92111 16.8007 9C16.8007 9.07889 16.7852 9.15701 16.755 9.2299C16.7248 9.30279 16.6806 9.36901 16.6248 9.4248Z" fill="#E42C24"/>
</svg>
