<svg width="24" height="24" viewBox="0 0 24 24" fill="none"
  xmlns="http://www.w3.org/2000/svg">
  <path d="M3.75 3C3.55109 3 3.36032 3.07902 3.21967 3.21967C3.07902 3.36032 3 3.55109 3 3.75C3 3.94891 3.07902 4.13968 3.21967 4.28033C3.36032 4.42098 3.55109 4.5 3.75 4.5H4.119C4.28186 4.50028 4.4402 4.55357 4.57009 4.6518C4.69999 4.75003 4.79438 4.88788 4.839 5.0445L7.218 13.3695C7.35255 13.8393 7.63641 14.2525 8.02665 14.5467C8.41689 14.8409 8.8923 15 9.381 15H16.2345C16.6843 15.0001 17.1237 14.8654 17.4962 14.6132C17.8686 14.3611 18.157 14.0031 18.324 13.5855L20.535 8.0565C20.6259 7.82899 20.6597 7.58268 20.6334 7.3391C20.6071 7.09551 20.5216 6.86208 20.3842 6.65919C20.2469 6.4563 20.062 6.29014 19.8456 6.17523C19.6292 6.06032 19.388 6.00015 19.143 6H6.672L6.2805 4.632C6.14629 4.16216 5.86277 3.74878 5.47281 3.45434C5.08285 3.15991 4.60763 3.00043 4.119 3H3.75ZM8.661 12.9555L7.101 7.5H19.1415L16.9305 13.029C16.8748 13.168 16.7787 13.2872 16.6547 13.3711C16.5306 13.4551 16.3843 13.5 16.2345 13.5H9.381C9.21814 13.4997 9.0598 13.4464 8.92991 13.3482C8.80001 13.25 8.70562 13.1121 8.661 12.9555ZM9.75 21C10.0455 21 10.3381 20.9418 10.611 20.8287C10.884 20.7157 11.1321 20.5499 11.341 20.341C11.5499 20.1321 11.7157 19.884 11.8287 19.611C11.9418 19.3381 12 19.0455 12 18.75C12 18.4545 11.9418 18.1619 11.8287 17.889C11.7157 17.616 11.5499 17.3679 11.341 17.159C11.1321 16.9501 10.884 16.7843 10.611 16.6713C10.3381 16.5582 10.0455 16.5 9.75 16.5C9.15326 16.5 8.58097 16.7371 8.15901 17.159C7.73705 17.581 7.5 18.1533 7.5 18.75C7.5 19.3467 7.73705 19.919 8.15901 20.341C8.58097 20.7629 9.15326 21 9.75 21ZM9.75 19.5C9.55109 19.5 9.36032 19.421 9.21967 19.2803C9.07902 19.1397 9 18.9489 9 18.75C9 18.5511 9.07902 18.3603 9.21967 18.2197C9.36032 18.079 9.55109 18 9.75 18C9.94891 18 10.1397 18.079 10.2803 18.2197C10.421 18.3603 10.5 18.5511 10.5 18.75C10.5 18.9489 10.421 19.1397 10.2803 19.2803C10.1397 19.421 9.94891 19.5 9.75 19.5ZM15.75 21C16.0455 21 16.3381 20.9418 16.611 20.8287C16.884 20.7157 17.1321 20.5499 17.341 20.341C17.5499 20.1321 17.7157 19.884 17.8287 19.611C17.9418 19.3381 18 19.0455 18 18.75C18 18.4545 17.9418 18.1619 17.8287 17.889C17.7157 17.616 17.5499 17.3679 17.341 17.159C17.1321 16.9501 16.884 16.7843 16.611 16.6713C16.3381 16.5582 16.0455 16.5 15.75 16.5C15.1533 16.5 14.581 16.7371 14.159 17.159C13.7371 17.581 13.5 18.1533 13.5 18.75C13.5 19.3467 13.7371 19.919 14.159 20.341C14.581 20.7629 15.1533 21 15.75 21ZM15.75 19.5C15.5511 19.5 15.3603 19.421 15.2197 19.2803C15.079 19.1397 15 18.9489 15 18.75C15 18.5511 15.079 18.3603 15.2197 18.2197C15.3603 18.079 15.5511 18 15.75 18C15.9489 18 16.1397 18.079 16.2803 18.2197C16.421 18.3603 16.5 18.5511 16.5 18.75C16.5 18.9489 16.421 19.1397 16.2803 19.2803C16.1397 19.421 15.9489 19.5 15.75 19.5Z" fill="#676767"/>
  <circle cx="17.6" cy="6.3999" r="4" fill="#FF0000"/>
</svg>
