<svg width="185" height="100" viewBox="0 0 185 100" fill="none"
  xmlns="http://www.w3.org/2000/svg">
  <path d="M35.9785 76.6168H23.3572C21.9604 76.6168 20.364 76.6168 20.5037 74.6114C20.6334 72.8767 22.2298 73.1876 23.3871 73.1775C32.0741 73.1775 40.761 73.1775 49.448 73.1775C50.6253 73.1775 52.1818 72.9369 52.2915 74.6716C52.4212 76.677 50.7849 76.5767 49.418 76.5767C44.8983 76.6269 40.4584 76.6269 35.9785 76.6168Z" fill="#AFAFAF"/>
  <path d="M53.7878 87.3559C51.7923 87.3559 49.7171 87.3559 47.6917 87.3559C46.6939 87.3559 45.786 86.9147 45.8758 85.6714C45.8853 85.4619 45.9377 85.2567 46.0297 85.0685C46.1217 84.8803 46.2513 84.7132 46.4105 84.5777C46.5697 84.4422 46.7551 84.3411 46.9549 84.2808C47.1547 84.2206 47.3648 84.2024 47.5719 84.2275C51.9087 84.194 56.2323 84.194 60.5425 84.2275C61.5402 84.2275 62.5379 84.6787 62.3683 85.902C62.1987 87.1253 61.2708 87.3258 60.2531 87.3258H53.7878V87.3559Z" fill="#AFAFAF"/>
  <path d="M33.6634 99.5988C31.668 99.5988 29.6126 99.5988 27.5872 99.5988C26.7092 99.5988 25.931 99.2379 25.8312 98.2953C25.7314 97.3528 26.5296 96.8314 27.3777 96.8213C31.5615 96.7812 35.7454 96.7812 39.9292 96.8213C40.7074 96.8213 41.6353 97.0419 41.6852 98.0948C41.7351 99.4184 40.6875 99.5587 39.6898 99.5788C37.7142 99.6289 35.6888 99.5988 33.6634 99.5988Z" fill="#AFAFAF"/>
  <path d="M39.1112 87.386C37.9239 87.3258 36.4074 87.4662 36.4573 85.7816C36.5071 84.0971 38.0137 84.2274 39.201 84.2274C40.3883 84.2274 41.8949 84.1171 41.845 85.8318C41.7951 87.5464 40.2886 87.3258 39.1112 87.386Z" fill="#AFAFAF"/>
  <path d="M2.53423 73.7593C3.89115 73.9899 5.63718 73.5287 5.52743 75.3536C5.41768 77.1785 3.70158 76.5769 2.53423 76.5969C1.36688 76.617 0.0498669 76.9178 -1.98628e-05 75.3436C-0.059884 73.3682 1.75599 74.2005 2.53423 73.7593Z" fill="#AFAFAF"/>
  <path d="M16.7622 96.7412C17.7599 96.8515 19.1068 96.651 19.0769 98.2152C19.0769 99.3984 18.0193 99.609 17.0315 99.5989C16.0438 99.5889 14.7168 99.5989 14.6968 98.1149C14.6869 96.8114 15.8143 96.8515 16.7622 96.7412Z" fill="#AFAFAF"/>
  <path d="M12.8905 76.647C11.6633 76.5367 10.895 75.9651 10.895 74.9123C10.895 73.5787 11.8229 73.0472 13.0202 73.1275C13.256 73.1232 13.4899 73.1708 13.7055 73.2669C13.921 73.3631 14.113 73.5056 14.268 73.6842C14.423 73.8629 14.5372 74.0735 14.6026 74.3013C14.6679 74.529 14.6829 74.7683 14.6465 75.0025C14.6283 75.4538 14.4337 75.8796 14.1049 76.1875C13.7761 76.4954 13.3397 76.6605 12.8905 76.647Z" fill="#AFAFAF"/>
  <path d="M149.022 77.0079H161.633C163.03 77.0079 164.626 77.0079 164.486 75.0025C164.357 73.2679 162.76 73.5787 161.603 73.5687C152.916 73.5687 144.229 73.5687 135.542 73.5687C134.365 73.5687 132.808 73.328 132.699 75.0627C132.569 77.0681 134.205 76.9678 135.572 76.9678C140.062 77.018 144.542 77.0079 149.022 77.0079Z" fill="#AFAFAF"/>
  <path d="M131.212 87.7369C133.207 87.7369 135.283 87.7369 137.308 87.7369C138.306 87.7369 139.214 87.2957 139.124 86.0524C139.107 85.8472 139.048 85.6476 138.952 85.4657C138.856 85.2838 138.725 85.1234 138.565 84.994C138.406 84.8647 138.222 84.7692 138.025 84.7133C137.828 84.6573 137.621 84.6422 137.418 84.6686C133.081 84.6352 128.758 84.6352 124.447 84.6686C123.45 84.6686 122.452 85.1198 122.621 86.3431C122.791 87.5664 123.719 87.767 124.737 87.767H131.242L131.212 87.7369Z" fill="#AFAFAF"/>
  <path d="M151.336 99.9799C153.332 99.9799 155.387 99.9799 157.413 99.9799C158.291 99.9799 159.069 99.619 159.169 98.6764C159.268 97.7339 158.47 97.2125 157.622 97.2024C153.438 97.1623 149.255 97.1623 145.071 97.2024C144.292 97.2024 143.365 97.423 143.315 98.4759C143.265 99.7995 144.312 99.9398 145.31 99.9599C147.286 100.02 149.311 99.99 151.336 99.9799Z" fill="#AFAFAF"/>
  <path d="M145.889 87.7771C147.076 87.717 148.593 87.8574 148.543 86.1728C148.493 84.4883 146.986 84.6286 145.799 84.6387C144.612 84.6487 143.105 84.5284 143.155 86.243C143.205 87.9576 144.672 87.717 145.889 87.7771Z" fill="#AFAFAF"/>
  <path d="M182.466 74.2004C181.109 74.4311 179.363 73.9698 179.473 75.7947C179.582 77.6197 181.299 77.018 182.466 77.0381C183.633 77.0582 184.95 77.359 185 75.7747C185.06 73.7592 183.244 74.5915 182.466 74.2004Z" fill="#AFAFAF"/>
  <path d="M168.238 97.1323C167.24 97.2426 165.893 97.0421 165.923 98.6063C165.923 99.7895 166.981 100 167.969 99.99C168.956 99.98 170.283 99.99 170.303 98.506C170.313 97.2025 169.186 97.2627 168.238 97.1323Z" fill="#AFAFAF"/>
  <path d="M172.109 77.0381C173.337 76.9278 174.105 76.3562 174.105 75.3034C174.105 73.9698 173.177 73.4384 171.98 73.5186C171.744 73.5143 171.51 73.5619 171.294 73.6581C171.079 73.7542 170.887 73.8967 170.732 74.0753C170.577 74.254 170.463 74.4646 170.397 74.6924C170.332 74.9201 170.317 75.1595 170.353 75.3936C170.372 75.8449 170.566 76.2708 170.895 76.5787C171.224 76.8866 171.66 77.0517 172.109 77.0381Z" fill="#AFAFAF"/>
  <path d="M148.99 52.2175L151.587 44.2204L152.942 44.665L150.346 52.6622L148.99 52.2175ZM146.751 47.8098L147.192 46.4527L155.181 49.0728L154.741 50.4299L146.751 47.8098Z" fill="#AFAFAF"/>
  <path d="M65.4306 15.2085L63.9765 6.92103L65.3825 6.67189L66.8365 14.9594L65.4306 15.2085ZM61.3874 12.3774L61.1407 10.9711L69.4256 9.50294L69.6724 10.9093L61.3874 12.3774Z" fill="#AFAFAF"/>
  <path d="M37.3386 40.1198V31.7057H38.7665V40.1198H37.3386ZM33.8455 36.6267V35.1989H42.2596V36.6267H33.8455Z" fill="#AFAFAF"/>
  <path d="M57.8587 37.5312L54.5562 44.5001L50.4355 37.7619L57.8587 37.5312Z" stroke="#B2B2B2" stroke-width="0.75" stroke-miterlimit="10"/>
  <path d="M105.071 20.9667L105.171 13.2458L111.716 17.6277L105.071 20.9667Z" stroke="#B2B2B2" stroke-width="0.75" stroke-miterlimit="10"/>
  <path d="M29.0639 57.064C30.9429 57.064 32.4662 55.5332 32.4662 53.6448C32.4662 51.7564 30.9429 50.2256 29.0639 50.2256C27.1849 50.2256 25.6616 51.7564 25.6616 53.6448C25.6616 55.5332 27.1849 57.064 29.0639 57.064Z" fill="black" stroke="#B2B2B2"/>
  <path d="M21.5014 89.7523C23.3804 89.7523 24.9037 88.2214 24.9037 86.333C24.9037 84.4447 23.3804 82.9138 21.5014 82.9138C19.6224 82.9138 18.0991 84.4447 18.0991 86.333C18.0991 88.2214 19.6224 89.7523 21.5014 89.7523Z" fill="black" stroke="#B2B2B2"/>
  <path d="M81.1594 23.1535C82.2665 22.8344 82.9066 21.6739 82.5891 20.5613C82.2717 19.4488 81.1169 18.8055 80.0099 19.1245C78.9028 19.4435 78.2627 20.6041 78.5801 21.7166C78.8976 22.8292 80.0524 23.4725 81.1594 23.1535Z" fill="black" stroke="#B2B2B2"/>
  <path d="M119.945 19.3031C121.052 18.9841 121.692 17.8236 121.375 16.711C121.057 15.5984 119.903 14.9551 118.795 15.2742C117.688 15.5932 117.048 16.7537 117.366 17.8663C117.683 18.9788 118.838 19.6221 119.945 19.3031Z" fill="black" stroke="#B2B2B2"/>
  <path d="M115.653 42.0227C114.957 41.2075 113.943 40.7412 112.871 40.7412H77.5251C76.9454 40.7412 76.4824 41.2075 76.4824 41.789C76.4824 42.3706 76.9464 42.8369 77.5251 42.8369H112.871C113.335 42.8369 113.798 43.0404 114.088 43.3904C114.377 43.7393 114.523 44.2056 114.464 44.6718L111.075 59.6673C111.075 59.6964 111.075 59.7255 111.075 59.7255C110.872 60.9778 109.771 61.9094 108.526 61.9094H84.4204C83.8407 61.9094 83.3778 62.3756 83.3778 62.9572C83.3778 63.5398 83.8417 64.005 84.4204 64.005H108.526C110.814 64.005 112.727 62.3746 113.103 60.1035L116.493 45.108C116.493 45.0789 116.493 45.0498 116.493 45.0498C116.666 43.9439 116.348 42.8659 115.653 42.0217V42.0227Z" fill="#888888"/>
  <path d="M82.7692 73.8174C80.1042 73.8174 77.9312 76.0013 77.9312 78.6795C77.9312 81.3588 80.1042 83.5416 82.7692 83.5416C85.4351 83.5416 87.6072 81.3577 87.6072 78.6795C87.6072 76.0013 85.4341 73.8174 82.7692 73.8174ZM82.7692 81.4751C81.2337 81.4751 79.9875 80.2227 79.9875 78.6795C79.9875 77.1364 81.2337 75.884 82.7692 75.884C84.3047 75.884 85.5509 77.1364 85.5509 78.6795C85.5509 80.2227 84.3047 81.4751 82.7692 81.4751Z" fill="#888888"/>
  <path d="M104.266 73.8174C101.601 73.8174 99.4282 76.0013 99.4282 78.6795C99.4282 81.3588 101.601 83.5416 104.266 83.5416C106.932 83.5416 109.104 81.3577 109.104 78.6795C109.104 76.0013 106.931 73.8174 104.266 73.8174ZM104.266 81.4751C102.731 81.4751 101.485 80.2227 101.485 78.6795C101.485 77.1364 102.731 75.884 104.266 75.884C105.802 75.884 107.048 77.1364 107.048 78.6795C107.048 80.2227 105.802 81.4751 104.266 81.4751Z" fill="#888888"/>
  <path d="M108.091 69.0717H79.2631L76.5682 58.444L71.3242 35.6454C70.9769 34.3058 69.7886 33.3743 68.3978 33.3743H61.6471C61.0674 33.3743 60.6045 33.8405 60.6045 34.4221C60.6045 35.0037 61.0684 35.4699 61.6471 35.4699H68.4267C68.8617 35.4699 69.2379 35.7607 69.3536 36.1688L74.2784 57.6278C74.2784 57.715 74.2784 57.8022 74.3074 57.8604L74.5967 58.9664V58.9954C74.5967 58.9954 74.5967 58.9954 74.5967 59.0245L77.4652 70.3802C77.5809 70.8464 77.987 71.1663 78.45 71.1663H78.5657H108.06C108.639 71.1663 109.102 70.7 109.102 70.1185C109.102 69.5369 108.638 69.0706 108.089 69.0706L108.091 69.0717Z" fill="#888888"/>
  <path d="M86.5356 57.5996C88.4184 55.3867 91.5193 54.1052 94.3579 53.9889C96.5599 53.9016 98.7908 54.4261 100.702 55.4739C101.398 55.8519 102.383 56.5217 102.818 56.988C103.107 57.2788 103.889 56.9298 103.571 56.61C98.9355 51.9514 90.0696 52.3585 85.8113 57.3379C85.493 57.7159 86.2752 57.8914 86.5356 57.5996Z" fill="#888888"/>
  <path d="M88.94 48.457C89.0847 49.0686 88.7375 49.6803 88.2157 49.8548C87.6649 50.0002 87.1152 49.6512 86.9695 49.0396C86.8249 48.4279 87.1721 47.8163 87.6939 47.6418C88.2446 47.4673 88.7944 47.8453 88.94 48.457Z" fill="#888888"/>
  <path d="M103.02 48.8359C103.165 49.4476 102.817 50.0592 102.296 50.2337C101.745 50.3791 101.195 50.0301 101.049 49.4185C100.904 48.8068 101.252 48.1952 101.774 48.0207C102.325 47.8462 102.903 48.2242 103.02 48.8359Z" fill="#888888"/>
</svg>
