<svg width="28" height="28" viewBox="0 0 28 28" fill="none"
  xmlns="http://www.w3.org/2000/svg">
  <path d="M19.8686 8.13138C19.7538 8.01647 19.6092 7.93579 19.4511 7.89839C19.293 7.861 19.1277 7.86835 18.9735 7.91963L11.0985 10.5446C10.9695 10.5876 10.8523 10.6601 10.7562 10.7562C10.6601 10.8523 10.5876 10.9695 10.5446 11.0985L7.91964 18.9735C7.86822 19.1277 7.86076 19.2931 7.89809 19.4513C7.93542 19.6095 8.01606 19.7541 8.13098 19.869C8.24589 19.984 8.39055 20.0646 8.54872 20.1019C8.7069 20.1393 8.87234 20.1318 9.02651 20.0804L16.9015 17.4554C17.0305 17.4124 17.1477 17.3399 17.2438 17.2438C17.3399 17.1477 17.4124 17.0305 17.4554 16.9015L20.0804 9.0265C20.1317 8.87235 20.139 8.70697 20.1016 8.54887C20.0642 8.39078 19.9835 8.24622 19.8686 8.13138V8.13138ZM10.1334 17.8675L12.0671 12.068L15.9338 15.9346L10.1334 17.8675Z" fill="#676767"/>
  <path d="M14 26.25C11.5772 26.25 9.20877 25.5316 7.19427 24.1855C5.17977 22.8395 3.60965 20.9263 2.68248 18.6879C1.75531 16.4495 1.51272 13.9864 1.98539 11.6101C2.45805 9.23388 3.62475 7.05114 5.33795 5.33795C7.05114 3.62475 9.23388 2.45805 11.6101 1.98539C13.9864 1.51272 16.4495 1.75531 18.6879 2.68248C20.9263 3.60965 22.8395 5.17977 24.1855 7.19427C25.5316 9.20877 26.25 11.5772 26.25 14C26.2463 17.2478 24.9545 20.3615 22.658 22.658C20.3615 24.9545 17.2478 26.2463 14 26.25V26.25ZM14 3.50001C11.9233 3.50001 9.89323 4.11582 8.16652 5.26957C6.4398 6.42333 5.09399 8.06321 4.29927 9.98183C3.50455 11.9005 3.29662 14.0117 3.70176 16.0485C4.1069 18.0853 5.10693 19.9562 6.57538 21.4246C8.04384 22.8931 9.91476 23.8931 11.9516 24.2982C13.9884 24.7034 16.0996 24.4955 18.0182 23.7007C19.9368 22.906 21.5767 21.5602 22.7304 19.8335C23.8842 18.1068 24.5 16.0767 24.5 14C24.4968 11.2162 23.3895 8.54739 21.421 6.57896C19.4526 4.61054 16.7838 3.50325 14 3.50001V3.50001Z" fill="#676767"/>
</svg>
