<svg width="28" height="28" viewBox="0 0 28 28" fill="none"
  xmlns="http://www.w3.org/2000/svg">
  <path d="M19.8686 8.13138C19.7538 8.01647 19.6092 7.93579 19.4511 7.89839C19.293 7.861 19.1277 7.86835 18.9735 7.91963L11.0985 10.5446C10.9695 10.5876 10.8523 10.6601 10.7562 10.7562C10.6601 10.8523 10.5876 10.9695 10.5446 11.0985L7.91964 18.9735C7.86822 19.1277 7.86076 19.2931 7.89809 19.4513C7.93542 19.6095 8.01606 19.7541 8.13098 19.869C8.24589 19.984 8.39055 20.0646 8.54872 20.1019C8.7069 20.1393 8.87234 20.1318 9.02651 20.0804L16.9015 17.4554C17.0305 17.4124 17.1477 17.3399 17.2438 17.2438C17.3399 17.1477 17.4124 17.0305 17.4554 16.9015L20.0804 9.0265C20.1317 8.87235 20.139 8.70697 20.1016 8.54887C20.0642 8.39078 19.9836 8.24622 19.8686 8.13138ZM10.1334 17.8675L12.0671 12.068L15.9338 15.9346L10.1334 17.8675Z" fill="#E42C24"/>
  <path d="M14 26.5H14.0003C17.3143 26.4962 20.4914 25.1781 22.8347 22.8347C25.1781 20.4914 26.4962 17.3143 26.5 14.0003V14C26.5 11.5277 25.7669 9.11099 24.3934 7.05538C23.0199 4.99976 21.0676 3.39761 18.7835 2.45151C16.4995 1.50542 13.9861 1.25787 11.5614 1.74019C9.13661 2.2225 6.90933 3.41301 5.16117 5.16117C3.41301 6.90933 2.2225 9.13661 1.74019 11.5614C1.25787 13.9861 1.50542 16.4995 2.45151 18.7835C3.39761 21.0676 4.99976 23.0199 7.05538 24.3934C9.11099 25.7669 11.5277 26.5 14 26.5ZM8.30541 5.47744C9.99099 4.35117 11.9727 3.75002 13.9999 3.75001C16.7174 3.75322 19.3227 4.83417 21.2443 6.75574C23.1659 8.67736 24.2468 11.2827 24.25 14.0003C24.2499 16.0275 23.6488 18.0091 22.5226 19.6946C21.3963 21.3802 19.7955 22.694 17.9225 23.4698C16.0496 24.2456 13.9886 24.4485 12.0003 24.0531C10.012 23.6576 8.18565 22.6813 6.75216 21.2478C5.31867 19.8144 4.34245 17.988 3.94696 15.9997C3.55146 14.0114 3.75444 11.9504 4.53024 10.0775C5.30604 8.20456 6.61981 6.60373 8.30541 5.47744Z" fill="#E42C24" stroke="#E42C24" stroke-width="0.5"/>
</svg>
