<svg width="28" height="28" viewBox="0 0 28 28" fill="none" xmlns="http://www.w3.org/2000/svg">
<path d="M11.25 24.7031V25.7031H5.41682C4.93284 25.7031 4.54182 25.3121 4.54182 24.8281V17.7973V16.7973H3.54182H3.3551C2.38987 16.7973 1.6051 16.0125 1.6051 15.0473C1.6051 14.5824 1.79104 14.1367 2.11917 13.8086L13.3821 2.5539C13.4632 2.47265 13.5595 2.40818 13.6655 2.3642C13.7716 2.32022 13.8852 2.29758 14 2.29758C14.1148 2.29758 14.2285 2.32022 14.3345 2.3642C14.4406 2.40818 14.5369 2.47265 14.618 2.5539L25.8809 13.8086M11.25 24.7031H12.25V20.5781V19.5781H13.25H14.3125H15.3125V20.5781V24.7031H16.3125M11.25 24.7031H5.54182M11.25 24.7031V19.5781V18.5781H12.25H15.3125H16.3125V19.5781V24.7031M16.3125 24.7031V25.7031H22.5832C23.0672 25.7031 23.4582 25.3121 23.4582 24.8281V17.7973V16.7973H24.4582H24.6449C25.1098 16.7973 25.5555 16.6141 25.8836 16.2832C26.5645 15.5996 26.5645 14.4922 25.8809 13.8086M16.3125 24.7031H22.4582M25.8809 13.8086L25.174 14.516C25.4672 14.8093 25.467 15.2844 25.1751 15.5775L25.1736 15.579C25.0356 15.7182 24.8465 15.7973 24.6449 15.7973H23.4582H22.4582V16.7973V24.7031M25.8809 13.8086L25.1738 14.5157L14 3.35008M14 3.35008L14.0889 3.26127M14 3.35008L13.9111 3.26127C13.9227 3.27263 13.9364 3.28167 13.9514 3.28789C13.9668 3.29429 13.9833 3.29758 14 3.29758C14.0167 3.29758 14.0332 3.29429 14.0486 3.28789C14.0636 3.28167 14.0773 3.27263 14.0889 3.26127M14 3.35008L2.82627 14.5157L2.11919 13.8086L2.82601 14.516C2.68439 14.6577 2.6051 14.8494 2.6051 15.0473C2.6051 15.4602 2.94215 15.7973 3.3551 15.7973H4.54182H5.54182V16.7973V24.7031M14.0889 3.26127C14.0892 3.26095 14.0895 3.26063 14.0899 3.26032L14.0889 3.26127ZM5.54182 24.7031H5.41682C5.48512 24.7031 5.54182 24.7598 5.54182 24.8281V24.7031ZM22.4582 24.7031V24.8281C22.4582 24.7598 22.5149 24.7031 22.5832 24.7031H22.4582Z" stroke="#676767" stroke-width="2"/>
</svg>
