<svg width="28" height="28" viewBox="0 0 28 28" fill="none"
  xmlns="http://www.w3.org/2000/svg">
  <path d="M14.659 7.46485H13.3437C13.2234 7.46485 13.125 7.56328 13.125 7.6836V15.2113C13.125 15.2824 13.1578 15.3481 13.2152 15.3891L17.7352 18.6895C17.8336 18.7605 17.9703 18.7414 18.0414 18.643L18.8234 17.5766C18.8973 17.4754 18.8754 17.3387 18.777 17.2703L14.8777 14.4512V7.6836C14.8777 7.56328 14.7793 7.46485 14.659 7.46485ZM20.6691 9.5211L24.9566 10.5684C25.0934 10.6012 25.2273 10.4973 25.2273 10.3578L25.2492 5.9418C25.2492 5.7586 25.0387 5.65469 24.8965 5.76953L20.5871 9.13555C20.5545 9.16075 20.5297 9.19462 20.5156 9.23328C20.5014 9.27194 20.4984 9.31382 20.507 9.3541C20.5156 9.39437 20.5353 9.43141 20.564 9.46095C20.5927 9.4905 20.6291 9.51134 20.6691 9.5211ZM25.2547 17.7543L23.7043 17.2211C23.6502 17.2026 23.5911 17.2059 23.5395 17.2305C23.4879 17.255 23.4479 17.2987 23.4281 17.3523C23.3762 17.4918 23.3215 17.6285 23.2641 17.7652C22.7773 18.9164 22.0801 19.9527 21.1887 20.8414C20.3072 21.7257 19.2625 22.4305 18.1125 22.9168C16.9212 23.4205 15.6407 23.679 14.3473 23.677C13.0402 23.677 11.7742 23.4227 10.582 22.9168C9.43206 22.4305 8.38737 21.7257 7.50586 20.8414C6.61718 19.9527 5.91992 18.9164 5.43047 17.7652C4.92957 16.5733 4.67295 15.2929 4.67578 14C4.67578 12.693 4.93008 11.4242 5.43593 10.232C5.92265 9.08086 6.61992 8.04453 7.51133 7.15586C8.39283 6.27162 9.43753 5.5668 10.5875 5.08047C11.7742 4.57461 13.043 4.32032 14.35 4.32032C15.657 4.32032 16.923 4.57461 18.1152 5.08047C19.2652 5.5668 20.3099 6.27162 21.1914 7.15586C21.4703 7.4375 21.7328 7.73008 21.9734 8.03907L23.6086 6.75938C21.4566 4.0086 18.107 2.23946 14.3445 2.24219C7.79296 2.24493 2.53203 7.56602 2.59765 14.1203C2.66328 20.5598 7.89961 25.7578 14.35 25.7578C19.4223 25.7578 23.7426 22.5422 25.3887 18.0387C25.4297 17.9238 25.3695 17.7953 25.2547 17.7543Z" fill="#676767"/>
</svg>
