<svg width="28" height="28" viewBox="0 0 28 28" fill="none"
  xmlns="http://www.w3.org/2000/svg">
  <path d="M23.6576 6.42002C21.4564 3.71744 18.1021 1.98948 14.3444 1.99219L23.6576 6.42002ZM23.6576 6.42002L24.7413 5.57354C25.053 5.32416 25.4992 5.55707 25.4992 5.9418V5.94304L25.4773 10.3578C25.4773 10.358 25.4773 10.3582 25.4773 10.3583L25.4773 10.3591L25.2273 10.3578L23.6576 6.42002ZM17.5877 18.8914L17.5888 18.8921C17.7939 19.0403 18.0879 19.0047 18.2435 18.7902C18.2437 18.7899 18.2439 18.7896 18.2441 18.7893L19.025 17.7244L19.0254 17.7239C19.1776 17.5154 19.1388 17.2192 18.9218 17.0666L15.1277 14.3234V7.6836C15.1277 7.42521 14.9174 7.21485 14.659 7.21485H13.3437C13.0854 7.21485 12.875 7.42521 12.875 7.6836V15.2113C12.875 15.36 12.9442 15.5021 13.0687 15.5916C13.0691 15.5919 13.0695 15.5922 13.0699 15.5925L17.5877 18.8914ZM24.8973 10.8112L24.8983 10.8115L14.3443 1.99219C7.65363 1.99503 2.28065 7.42973 2.34767 14.1228L2.34767 14.1229C2.41469 20.6991 7.76226 26.0078 14.35 26.0078C19.5307 26.0078 23.9425 22.7233 25.6235 18.1245L25.6241 18.1228C25.7111 17.8792 25.5849 17.6068 25.3388 17.5189L25.3388 17.5188L25.336 17.5179L23.7856 16.9847L23.7854 16.9846C23.6695 16.9449 23.5428 16.9521 23.4322 17.0047C23.3218 17.0571 23.2363 17.1505 23.1939 17.2651C23.1433 17.4007 23.0899 17.5342 23.0337 17.6682C22.5595 18.7895 21.8805 19.7987 21.0122 20.6644L21.0116 20.6649C20.1529 21.5262 19.1353 22.2128 18.0151 22.6865C16.8548 23.1771 15.6075 23.4289 14.3477 23.427H14.3473C13.0732 23.427 11.8405 23.1792 10.6797 22.6867L10.6794 22.6865C9.55922 22.2128 8.54158 21.5262 7.68291 20.6649L7.68263 20.6646C6.81687 19.7989 6.13771 18.7895 5.66074 17.6679C5.17294 16.5069 4.92302 15.2599 4.92578 14.0006V14C4.92578 12.7259 5.17357 11.4904 5.66607 10.3297L5.6662 10.3294C6.14036 9.20793 6.8194 8.19868 7.68783 7.33291L7.68838 7.33237C8.54705 6.47102 9.56469 5.78446 10.6849 5.31073L10.6855 5.31045C11.8405 4.81813 13.0758 4.57032 14.35 4.57032C15.624 4.57032 16.8568 4.81808 18.0176 5.31061L18.0179 5.31073C19.1378 5.78437 20.1553 6.47076 21.0139 7.33187C21.2299 7.55 21.4349 7.77391 21.6267 8.0063L20.4341 8.93781C20.4339 8.938 20.4336 8.93819 20.4334 8.93838C20.364 8.99231 20.3111 9.06468 20.2808 9.14723L20.5156 9.23328L20.2808 9.14724C20.2505 9.23008 20.2441 9.31981 20.2625 9.40613C20.2808 9.49243 20.3232 9.5718 20.3846 9.6351L20.564 9.46095C20.5927 9.4905 20.6291 9.51134 20.6691 9.5211L20.6098 9.76396L20.6099 9.76398L24.8973 10.8112Z" fill="#E42C24" stroke="#E42C24" stroke-width="0.5"/>
</svg>
