<svg width="28" height="28" viewBox="0 0 28 28" fill="none"
  xmlns="http://www.w3.org/2000/svg">
  <path d="M25.8809 13.8086L14.618 2.5539C14.5369 2.47265 14.4406 2.40818 14.3345 2.3642C14.2285 2.32022 14.1148 2.29758 14 2.29758C13.8852 2.29758 13.7716 2.32022 13.6655 2.3642C13.5595 2.40818 13.4632 2.47265 13.3821 2.5539L2.11917 13.8086C1.79104 14.1367 1.6051 14.5824 1.6051 15.0473C1.6051 16.0125 2.38987 16.7973 3.3551 16.7973H4.54182V24.8281C4.54182 25.3121 4.93284 25.7031 5.41682 25.7031H12.25V19.5781H15.3125V25.7031H22.5832C23.0672 25.7031 23.4582 25.3121 23.4582 24.8281V16.7973H24.6449C25.1098 16.7973 25.5555 16.6141 25.8836 16.2832C26.5645 15.5996 26.5645 14.4922 25.8809 13.8086Z" fill="#E42C24"/>
</svg>
