<svg width="7" height="8" viewBox="0 0 7 8" fill="none"
  xmlns="http://www.w3.org/2000/svg">
  <path d="M3.50001 0.4375C2.09772 0.4375 0.961917 1.57393 0.961917 2.97559C0.961028 3.52303 1.13796 4.05596 1.4661 4.49416L3.09411 7.31404C3.10356 7.33222 3.11301 7.35031 3.12462 7.36696L3.12822 7.37317L3.12921 7.37263C3.17159 7.43169 3.22748 7.47974 3.29222 7.5128C3.35696 7.54585 3.42867 7.56293 3.50136 7.56262C3.6414 7.56262 3.76344 7.4989 3.84741 7.40071L3.85164 7.40314L3.86775 7.37524C3.89151 7.3432 3.91257 7.309 3.92778 7.27129L5.52276 4.50847C5.85783 4.06777 6.03889 3.52921 6.0381 2.97559C6.0381 1.57393 4.9023 0.4375 3.50001 0.4375ZM3.4749 4.26232C2.78397 4.26232 2.22435 3.70243 2.22435 3.01177C2.22435 2.3212 2.78397 1.76122 3.4749 1.76122C4.16583 1.76122 4.72545 2.3212 4.72545 3.01177C4.72545 3.70234 4.16583 4.26232 3.4749 4.26232Z" fill="#676767"/>
</svg>
