<svg width="15" height="15" viewBox="0 0 15 15" fill="none" xmlns="http://www.w3.org/2000/svg">
<path d="M11.9675 1.85688C11.8561 1.6722 11.699 1.51934 11.5114 1.41304C11.3238 1.30675 11.1119 1.25059 10.8962 1.25H4.10375C3.6675 1.25 3.25688 1.4825 3.0325 1.85688L1.33938 4.67813C1.28078 4.77526 1.24988 4.88657 1.25 5C1.2525 5.60326 1.47468 6.18495 1.875 6.63625V11.875C1.875 12.5644 2.43563 13.125 3.125 13.125H11.875C12.5644 13.125 13.125 12.5644 13.125 11.875V6.63625C13.5253 6.18495 13.7475 5.60326 13.75 5C13.7501 4.88657 13.7192 4.77526 13.6606 4.67813L11.9675 1.85688ZM12.49 5.15688C12.4514 5.45864 12.3043 5.73603 12.0761 5.9372C11.8479 6.13838 11.5542 6.24957 11.25 6.25C10.5606 6.25 10 5.68938 10 5C10 4.9575 9.98438 4.92 9.97563 4.88L9.98812 4.8775L9.5125 2.5H10.8962L12.49 5.15688ZM6.76188 2.5H8.2375L8.74563 5.04063C8.72375 5.71063 8.175 6.25 7.5 6.25C6.825 6.25 6.27625 5.71063 6.25437 5.04063L6.76188 2.5ZM4.10375 2.5H5.4875L5.0125 4.8775L5.025 4.88C5.01562 4.92 5 4.9575 5 5C5 5.68938 4.43937 6.25 3.75 6.25C3.44578 6.24957 3.15213 6.13838 2.92392 5.9372C2.69572 5.73603 2.54858 5.45864 2.51 5.15688L4.10375 2.5ZM6.25 11.875V10H8.75V11.875H6.25ZM10 11.875V10C10 9.31063 9.43937 8.75 8.75 8.75H6.25C5.56063 8.75 5 9.31063 5 10V11.875H3.125V7.41125C3.32563 7.46313 3.5325 7.5 3.75 7.5C4.10488 7.50019 4.45572 7.42463 4.77907 7.27837C5.10241 7.13211 5.39081 6.91852 5.625 6.65188C6.08312 7.17188 6.75437 7.5 7.5 7.5C8.24563 7.5 8.91687 7.17188 9.375 6.65188C9.60919 6.91852 9.89759 7.13211 10.2209 7.27837C10.5443 7.42463 10.8951 7.50019 11.25 7.5C11.4675 7.5 11.6744 7.46313 11.875 7.41125V11.875H10Z" fill="#676767"/>
</svg>
