<svg width="24" height="24" viewBox="0 0 24 24" fill="none"
  xmlns="http://www.w3.org/2000/svg">
  <path d="M11.1667 3.56967C11.4547 2.81011 12.5446 2.81011 12.8335 3.56967L14.6964 8.73005C14.7614 8.89815 14.8758 9.04259 15.0246 9.14429C15.1734 9.246 15.3495 9.3002 15.5298 9.29972H20.1079C20.9538 9.29972 21.3228 10.3527 20.6577 10.8684L17.3999 13.7995C17.2539 13.9117 17.1473 14.0672 17.0952 14.2438C17.0432 14.4203 17.0484 14.6089 17.1101 14.7823L18.2998 19.8248C18.5896 20.6347 17.6519 21.3304 16.9427 20.8318L12.5176 18.0239C12.366 17.9174 12.1853 17.8603 12.0001 17.8603C11.8149 17.8603 11.6342 17.9174 11.4826 18.0239L7.05753 20.8318C6.34926 21.3304 5.4106 20.6338 5.70039 19.8248L6.89014 14.7823C6.95185 14.6089 6.95705 14.4203 6.90499 14.2438C6.85293 14.0672 6.74628 13.9117 6.60035 13.7995L3.34249 10.8684C2.67652 10.3527 3.04731 9.29972 3.89147 9.29972H8.46957C8.64982 9.30032 8.82601 9.24618 8.97482 9.14445C9.12363 9.04273 9.23805 8.89822 9.30293 8.73005L11.1658 3.56967H11.1667Z" stroke="#676767" stroke-width="2" stroke-linecap="round" stroke-linejoin="round"/>
  <circle cx="17.6" cy="6.3999" r="4" fill="#FF0000"/>
</svg>
