<svg width="20" height="20" viewBox="0 0 20 20" fill="none"
  xmlns="http://www.w3.org/2000/svg">
  <path d="M9.99998 5.83333C12.3 5.83333 14.1666 7.7 14.1666 10C14.1666 10.5417 14.0583 11.05 13.8666 11.525L16.3 13.9583C17.5583 12.9083 18.55 11.55 19.1583 10C17.7166 6.34167 14.1583 3.75 9.99165 3.75C8.82498 3.75 7.70831 3.95833 6.67498 4.33333L8.47498 6.13333C8.94998 5.94167 9.45831 5.83333 9.99998 5.83333ZM1.66665 3.55833L3.56665 5.45833L3.94998 5.84167C2.55712 6.92334 1.48066 8.35957 0.833313 10C2.27498 13.6583 5.83331 16.25 9.99998 16.25C11.2916 16.25 12.525 16 13.65 15.55L14 15.9L16.4416 18.3333L17.5 17.275L2.72498 2.5L1.66665 3.55833ZM6.27498 8.16667L7.56665 9.45833C7.52498 9.63333 7.49998 9.81667 7.49998 10C7.49998 11.3833 8.61665 12.5 9.99998 12.5C10.1833 12.5 10.3666 12.475 10.5416 12.4333L11.8333 13.725C11.275 14 10.6583 14.1667 9.99998 14.1667C7.69998 14.1667 5.83331 12.3 5.83331 10C5.83331 9.34167 5.99998 8.725 6.27498 8.16667ZM9.86665 7.51667L12.4916 10.1417L12.5083 10.0083C12.5083 8.625 11.3916 7.50833 10.0083 7.50833L9.86665 7.51667Z" fill="#343A40"/>
</svg>
